<?xml version="1.0" standalone="no"?>
 <!DOCTYPE svg PUBLIC "-//W3C//DTD SVG 1.1//EN" 
 "http://www.w3.org/Graphics/SVG/1.1/DTD/svg11.dtd"> 
<svg xmlns="http://www.w3.org/2000/svg" version="1.1" 
    width="29.7002cm" height="21.0007cm" viewBox="0 0 116930 82680 ">
<title>SVG Picture created as cs4398-F.Cu.svg date 2017/04/17 18:11:46 </title>
  <desc>Picture generated by PCBNEW </desc>
<g style="fill:#000000; fill-opacity:1;stroke:#000000; stroke-opacity:1;
stroke-linecap:round; stroke-linejoin:round; "
 transform="translate(0 0) scale(1 1)">
</g>
<g style="fill:#000000; fill-opacity:0.0; 
stroke:#000000; stroke-width:-0.000393701; stroke-opacity:1; 
stroke-linecap:round; stroke-linejoin:round;">
</g>
<g style="fill:#000000; fill-opacity:1.0; 
stroke:#000000; stroke-width:39.3701; stroke-opacity:1; 
stroke-linecap:round; stroke-linejoin:round;">
<rect x="54523.6" y="37230.3" width="18025.4" height="13828.7" rx="0" />
</g>
<g style="fill:#FFFFFF; fill-opacity:1.0; 
stroke:#FFFFFF; stroke-width:39.3701; stroke-opacity:1; 
stroke-linecap:round; stroke-linejoin:round;">
</g>
<g style="fill:#FFFFFF; fill-opacity:0.0; 
stroke:#FFFFFF; stroke-width:39.3701; stroke-opacity:1; 
stroke-linecap:round; stroke-linejoin:round;">
</g>
<g style="fill:#FFFFFF; fill-opacity:0.0; 
stroke:#FFFFFF; stroke-width:118.11; stroke-opacity:1; 
stroke-linecap:round; stroke-linejoin:round;">
<path d="M64158 46941
L64203 46963
L64293 46963
L64338 46941
L64361 46918
L64383 46873
L64383 46738
L64361 46693
L64338 46671
L64293 46648
L64203 46648
L64158 46671
" />
<path d="M63978 46941
L63933 46963
L63843 46963
L63798 46941
L63776 46896
L63776 46873
L63798 46828
L63843 46806
L63911 46806
L63956 46783
L63978 46738
L63978 46716
L63956 46671
L63911 46648
L63843 46648
L63798 46671
" />
<path d="M63371 46648
L63371 46963
" />
<path d="M63483 46468
L63596 46806
L63303 46806
" />
<path d="M63168 46491
L62876 46491
L63033 46671
L62966 46671
L62921 46693
L62898 46716
L62876 46761
L62876 46873
L62898 46918
L62921 46941
L62966 46963
L63101 46963
L63146 46941
L63168 46918
" />
<path d="M62651 46963
L62561 46963
L62516 46941
L62493 46918
L62448 46851
L62426 46761
L62426 46581
L62448 46536
L62471 46513
L62516 46491
L62606 46491
L62651 46513
L62673 46536
L62696 46581
L62696 46693
L62673 46738
L62651 46761
L62606 46783
L62516 46783
L62471 46761
L62448 46738
L62426 46693
" />
<path d="M62156 46693
L62201 46671
L62223 46648
L62246 46603
L62246 46581
L62223 46536
L62201 46513
L62156 46491
L62066 46491
L62021 46513
L61998 46536
L61976 46581
L61976 46603
L61998 46648
L62021 46671
L62066 46693
L62156 46693
L62201 46716
L62223 46738
L62246 46783
L62246 46873
L62223 46918
L62201 46941
L62156 46963
L62066 46963
L62021 46941
L61998 46918
L61976 46873
L61976 46783
L61998 46738
L62021 46716
L62066 46693
" />
</g>
<g style="fill:#FFFFFF; fill-opacity:0.0; 
stroke:#FFFFFF; stroke-width:0; stroke-opacity:1; 
stroke-linecap:round; stroke-linejoin:round;">
</g>
<g style="fill:#FFFFFF; fill-opacity:1.0; 
stroke:#FFFFFF; stroke-width:0; stroke-opacity:1; 
stroke-linecap:round; stroke-linejoin:round;">
<polyline style="fill-rule:evenodd;"
points="63081,41868
63278,41868
63278,41631
63081,41631
63081,41868
" /> 
<polyline style="fill-rule:evenodd;"
points="63081,41435
63278,41435
63278,41198
63081,41198
63081,41435
" /> 
<polyline style="fill-rule:evenodd;"
points="66321,41528
66321,41371
65888,41371
65888,41528
66321,41528
" /> 
<polyline style="fill-rule:evenodd;"
points="66321,41784
66321,41627
65888,41627
65888,41784
66321,41784
" /> 
<polyline style="fill-rule:evenodd;"
points="66321,42040
66321,41883
65888,41883
65888,42040
66321,42040
" /> 
<polyline style="fill-rule:evenodd;"
points="66321,42296
66321,42138
65888,42138
65888,42296
66321,42296
" /> 
<polyline style="fill-rule:evenodd;"
points="66321,42552
66321,42394
65888,42394
65888,42552
66321,42552
" /> 
<polyline style="fill-rule:evenodd;"
points="66321,42808
66321,42650
65888,42650
65888,42808
66321,42808
" /> 
<polyline style="fill-rule:evenodd;"
points="66321,43064
66321,42906
65888,42906
65888,43064
66321,43064
" /> 
<polyline style="fill-rule:evenodd;"
points="66321,43320
66321,43162
65888,43162
65888,43320
66321,43320
" /> 
<polyline style="fill-rule:evenodd;"
points="66321,43575
66321,43418
65888,43418
65888,43575
66321,43575
" /> 
<polyline style="fill-rule:evenodd;"
points="66321,43831
66321,43674
65888,43674
65888,43831
66321,43831
" /> 
<polyline style="fill-rule:evenodd;"
points="66321,44087
66321,43930
65888,43930
65888,44087
66321,44087
" /> 
<polyline style="fill-rule:evenodd;"
points="66321,44343
66321,44186
65888,44186
65888,44343
66321,44343
" /> 
<polyline style="fill-rule:evenodd;"
points="66321,44599
66321,44442
65888,44442
65888,44599
66321,44599
" /> 
<polyline style="fill-rule:evenodd;"
points="66321,44855
66321,44698
65888,44698
65888,44855
66321,44855
" /> 
<polyline style="fill-rule:evenodd;"
points="64077,44855
64077,44698
63644,44698
63644,44855
64077,44855
" /> 
<polyline style="fill-rule:evenodd;"
points="64077,44599
64077,44442
63644,44442
63644,44599
64077,44599
" /> 
<polyline style="fill-rule:evenodd;"
points="64077,44343
64077,44186
63644,44186
63644,44343
64077,44343
" /> 
<polyline style="fill-rule:evenodd;"
points="64077,44087
64077,43930
63644,43930
63644,44087
64077,44087
" /> 
<polyline style="fill-rule:evenodd;"
points="64077,43831
64077,43674
63644,43674
63644,43831
64077,43831
" /> 
<polyline style="fill-rule:evenodd;"
points="64077,43575
64077,43418
63644,43418
63644,43575
64077,43575
" /> 
<polyline style="fill-rule:evenodd;"
points="64077,43320
64077,43162
63644,43162
63644,43320
64077,43320
" /> 
<polyline style="fill-rule:evenodd;"
points="64077,43064
64077,42906
63644,42906
63644,43064
64077,43064
" /> 
<polyline style="fill-rule:evenodd;"
points="64077,42808
64077,42650
63644,42650
63644,42808
64077,42808
" /> 
<polyline style="fill-rule:evenodd;"
points="64077,42552
64077,42394
63644,42394
63644,42552
64077,42552
" /> 
<polyline style="fill-rule:evenodd;"
points="64077,42296
64077,42138
63644,42138
63644,42296
64077,42296
" /> 
<polyline style="fill-rule:evenodd;"
points="64077,42040
64077,41883
63644,41883
63644,42040
64077,42040
" /> 
<polyline style="fill-rule:evenodd;"
points="64077,41784
64077,41627
63644,41627
63644,41784
64077,41784
" /> 
<polyline style="fill-rule:evenodd;"
points="64077,41528
64077,41371
63644,41371
63644,41528
64077,41528
" /> 
<polyline style="fill-rule:evenodd;"
points="67028,42665
66831,42665
66831,42901
67028,42901
67028,42665
" /> 
<polyline style="fill-rule:evenodd;"
points="67028,43098
66831,43098
66831,43334
67028,43334
67028,43098
" /> 
<polyline style="fill-rule:evenodd;"
points="66778,44665
66581,44665
66581,44901
66778,44901
66778,44665
" /> 
<polyline style="fill-rule:evenodd;"
points="66778,45098
66581,45098
66581,45334
66778,45334
66778,45098
" /> 
<polyline style="fill-rule:evenodd;"
points="61831,44868
62028,44868
62028,44631
61831,44631
61831,44868
" /> 
<polyline style="fill-rule:evenodd;"
points="61831,44435
62028,44435
62028,44198
61831,44198
61831,44435
" /> 
<polyline style="fill-rule:evenodd;"
points="63081,45118
63278,45118
63278,44881
63081,44881
63081,45118
" /> 
<polyline style="fill-rule:evenodd;"
points="63081,44685
63278,44685
63278,44448
63081,44448
63081,44685
" /> 
<polyline style="fill-rule:evenodd;"
points="59693,46763
59693,47236
60166,47236
60166,46763
59693,46763
" /> 
<circle cx="60717.4" cy="47000" r="236.22" /> 
</g>
<g style="fill:#FFFFFF; fill-opacity:1.0; 
stroke:#FFFFFF; stroke-width:39.3701; stroke-opacity:1; 
stroke-linecap:round; stroke-linejoin:round;">
</g>
<g style="fill:#FFFFFF; fill-opacity:1.0; 
stroke:#FFFFFF; stroke-width:0; stroke-opacity:1; 
stroke-linecap:round; stroke-linejoin:round;">
<polyline style="fill-rule:evenodd;"
points="62193,45736
62666,45736
62666,45263
62193,45263
62193,45736
" /> 
<circle cx="62430" cy="44712.6" r="236.22" /> 
</g>
<g style="fill:#FFFFFF; fill-opacity:1.0; 
stroke:#FFFFFF; stroke-width:39.3701; stroke-opacity:1; 
stroke-linecap:round; stroke-linejoin:round;">
</g>
<g style="fill:#FFFFFF; fill-opacity:1.0; 
stroke:#FFFFFF; stroke-width:0; stroke-opacity:1; 
stroke-linecap:round; stroke-linejoin:round;">
<polyline style="fill-rule:evenodd;"
points="62193,41773
62666,41773
62666,41301
62193,41301
62193,41773
" /> 
<circle cx="62430" cy="40750" r="236.22" /> 
</g>
<g style="fill:#FFFFFF; fill-opacity:1.0; 
stroke:#FFFFFF; stroke-width:39.3701; stroke-opacity:1; 
stroke-linecap:round; stroke-linejoin:round;">
</g>
<g style="fill:#FFFFFF; fill-opacity:1.0; 
stroke:#FFFFFF; stroke-width:0; stroke-opacity:1; 
stroke-linecap:round; stroke-linejoin:round;">
<polyline style="fill-rule:evenodd;"
points="60666,44476
60193,44476
60193,44948
60666,44948
60666,44476
" /> 
<circle cx="60430" cy="45500" r="236.22" /> 
</g>
<g style="fill:#FFFFFF; fill-opacity:1.0; 
stroke:#FFFFFF; stroke-width:39.3701; stroke-opacity:1; 
stroke-linecap:round; stroke-linejoin:round;">
</g>
<g style="fill:#FFFFFF; fill-opacity:1.0; 
stroke:#FFFFFF; stroke-width:0; stroke-opacity:1; 
stroke-linecap:round; stroke-linejoin:round;">
<polyline style="fill-rule:evenodd;"
points="61426,44212
60933,44212
60933,44803
61426,44803
61426,44212
" /> 
<polyline style="fill-rule:evenodd;"
points="61426,45196
60933,45196
60933,45787
61426,45787
61426,45196
" /> 
<polyline style="fill-rule:evenodd;"
points="62628,43118
62628,43314
62865,43314
62865,43118
62628,43118
" /> 
<polyline style="fill-rule:evenodd;"
points="63061,43118
63061,43314
63298,43314
63298,43118
63061,43118
" /> 
<polyline style="fill-rule:evenodd;"
points="65817,45946
65817,45453
65226,45453
65226,45946
65817,45946
" /> 
<polyline style="fill-rule:evenodd;"
points="64833,45946
64833,45453
64242,45453
64242,45946
64833,45946
" /> 
<polyline style="fill-rule:evenodd;"
points="66514,39665
65845,39665
65845,40334
66514,40334
66514,39665
" /> 
</g>
<g style="fill:#FFFFFF; fill-opacity:1.0; 
stroke:#FFFFFF; stroke-width:669.291; stroke-opacity:1; 
stroke-linecap:round; stroke-linejoin:round;">
</g>
<g style="fill:#FFFFFF; fill-opacity:0.0; 
stroke:#FFFFFF; stroke-width:669.291; stroke-opacity:1; 
stroke-linecap:round; stroke-linejoin:round;">
<path d="M67180 40000
L67180 40000
" />
<path d="M68180 40000
L68180 40000
" />
<path d="M69180 40000
L69180 40000
" />
</g>
<g style="fill:#FFFFFF; fill-opacity:0.0; 
stroke:#FFFFFF; stroke-width:0; stroke-opacity:1; 
stroke-linecap:round; stroke-linejoin:round;">
</g>
<g style="fill:#FFFFFF; fill-opacity:1.0; 
stroke:#FFFFFF; stroke-width:0; stroke-opacity:1; 
stroke-linecap:round; stroke-linejoin:round;">
<polyline style="fill-rule:evenodd;"
points="58264,40834
58264,40165
57595,40165
57595,40834
58264,40834
" /> 
</g>
<g style="fill:#FFFFFF; fill-opacity:1.0; 
stroke:#FFFFFF; stroke-width:669.291; stroke-opacity:1; 
stroke-linecap:round; stroke-linejoin:round;">
</g>
<g style="fill:#FFFFFF; fill-opacity:0.0; 
stroke:#FFFFFF; stroke-width:669.291; stroke-opacity:1; 
stroke-linecap:round; stroke-linejoin:round;">
<path d="M57930 41500
L57930 41500
" />
</g>
<g style="fill:#FFFFFF; fill-opacity:0.0; 
stroke:#FFFFFF; stroke-width:0; stroke-opacity:1; 
stroke-linecap:round; stroke-linejoin:round;">
</g>
<g style="fill:#FFFFFF; fill-opacity:1.0; 
stroke:#FFFFFF; stroke-width:0; stroke-opacity:1; 
stroke-linecap:round; stroke-linejoin:round;">
<polyline style="fill-rule:evenodd;"
points="64345,40334
65014,40334
65014,39665
64345,39665
64345,40334
" /> 
</g>
<g style="fill:#FFFFFF; fill-opacity:1.0; 
stroke:#FFFFFF; stroke-width:669.291; stroke-opacity:1; 
stroke-linecap:round; stroke-linejoin:round;">
</g>
<g style="fill:#FFFFFF; fill-opacity:0.0; 
stroke:#FFFFFF; stroke-width:669.291; stroke-opacity:1; 
stroke-linecap:round; stroke-linejoin:round;">
<path d="M63680 40000
L63680 40000
" />
</g>
<g style="fill:#FFFFFF; fill-opacity:0.0; 
stroke:#FFFFFF; stroke-width:0; stroke-opacity:1; 
stroke-linecap:round; stroke-linejoin:round;">
</g>
<g style="fill:#FFFFFF; fill-opacity:1.0; 
stroke:#FFFFFF; stroke-width:0; stroke-opacity:1; 
stroke-linecap:round; stroke-linejoin:round;">
<polyline style="fill-rule:evenodd;"
points="69514,43084
69514,42415
68845,42415
68845,43084
69514,43084
" /> 
</g>
<g style="fill:#FFFFFF; fill-opacity:1.0; 
stroke:#FFFFFF; stroke-width:669.291; stroke-opacity:1; 
stroke-linecap:round; stroke-linejoin:round;">
</g>
<g style="fill:#FFFFFF; fill-opacity:0.0; 
stroke:#FFFFFF; stroke-width:669.291; stroke-opacity:1; 
stroke-linecap:round; stroke-linejoin:round;">
<path d="M69180 43750
L69180 43750
" />
<path d="M69180 44750
L69180 44750
" />
<path d="M69180 45750
L69180 45750
" />
<path d="M69180 46750
L69180 46750
" />
<path d="M69180 47750
L69180 47750
" />
</g>
<g style="fill:#FFFFFF; fill-opacity:0.0; 
stroke:#FFFFFF; stroke-width:0; stroke-opacity:1; 
stroke-linecap:round; stroke-linejoin:round;">
</g>
<g style="fill:#FFFFFF; fill-opacity:1.0; 
stroke:#FFFFFF; stroke-width:0; stroke-opacity:1; 
stroke-linecap:round; stroke-linejoin:round;">
<polyline style="fill-rule:evenodd;"
points="58264,43084
58264,42415
57595,42415
57595,43084
58264,43084
" /> 
</g>
<g style="fill:#FFFFFF; fill-opacity:1.0; 
stroke:#FFFFFF; stroke-width:669.291; stroke-opacity:1; 
stroke-linecap:round; stroke-linejoin:round;">
</g>
<g style="fill:#FFFFFF; fill-opacity:0.0; 
stroke:#FFFFFF; stroke-width:669.291; stroke-opacity:1; 
stroke-linecap:round; stroke-linejoin:round;">
<path d="M57930 43750
L57930 43750
" />
<path d="M57930 44750
L57930 44750
" />
<path d="M57930 45750
L57930 45750
" />
<path d="M57930 46750
L57930 46750
" />
<path d="M57930 47750
L57930 47750
" />
</g>
<g style="fill:#FFFFFF; fill-opacity:0.0; 
stroke:#FFFFFF; stroke-width:0; stroke-opacity:1; 
stroke-linecap:round; stroke-linejoin:round;">
</g>
<g style="fill:#FFFFFF; fill-opacity:1.0; 
stroke:#FFFFFF; stroke-width:0; stroke-opacity:1; 
stroke-linecap:round; stroke-linejoin:round;">
<polyline style="fill-rule:evenodd;"
points="66595,48084
67264,48084
67264,47415
66595,47415
66595,48084
" /> 
</g>
<g style="fill:#FFFFFF; fill-opacity:1.0; 
stroke:#FFFFFF; stroke-width:669.291; stroke-opacity:1; 
stroke-linecap:round; stroke-linejoin:round;">
</g>
<g style="fill:#FFFFFF; fill-opacity:0.0; 
stroke:#FFFFFF; stroke-width:669.291; stroke-opacity:1; 
stroke-linecap:round; stroke-linejoin:round;">
<path d="M65930 47750
L65930 47750
" />
<path d="M64930 47750
L64930 47750
" />
<path d="M63930 47750
L63930 47750
" />
<path d="M62930 47750
L62930 47750
" />
<path d="M61930 47750
L61930 47750
" />
</g>
<g style="fill:#FFFFFF; fill-opacity:0.0; 
stroke:#FFFFFF; stroke-width:98.4252; stroke-opacity:1; 
stroke-linecap:round; stroke-linejoin:round;">
<path d="M63180 41750
L63180 41730
" />
<path d="M63180 41730
L62794 41344
" />
<path d="M62794 41344
L62794 41198
" />
<path d="M62794 41198
L62760 41165
" />
<path d="M62760 41165
L58264 41165
" />
<path d="M58264 41165
L57930 41500
" />
<path d="M63860 41705
L63224 41705
" />
<path d="M63224 41705
L63180 41750
" />
<path d="M63930 47750
L63430 47250
" />
<path d="M63430 47250
L63680 47250
" />
<path d="M62930 47750
L62430 47250
" />
<path d="M64537 47250
L63680 47250
" />
<path d="M63680 47250
L62430 47250
" />
<path d="M62430 47250
L60967 47250
" />
<path d="M60967 47250
L60717 47000
" />
<path d="M65760 45166
L67680 47086
" />
<path d="M67680 47086
L67680 48250
" />
<path d="M67680 48250
L65930 48250
" />
<path d="M65930 48250
L65930 47750
" />
<path d="M63930 47750
L62930 47750
" />
<path d="M64930 47750
L63930 47750
" />
<path d="M65930 47750
L64930 47750
" />
<path d="M64537 45700
L64537 47250
" />
<path d="M64537 47250
L64537 47357
" />
<path d="M64537 47357
L64930 47750
" />
<path d="M62430 40750
L62191 40988
" />
<path d="M62191 40988
L57757 40988
" />
<path d="M57757 40988
L57290 41455
" />
<path d="M63180 41316
L63180 41165
" />
<path d="M63180 41165
L62764 40750
" />
<path d="M62764 40750
L62430 40750
" />
<path d="M66680 45216
L65810 45216
" />
<path d="M65810 45216
L65760 45166
" />
<path d="M66105 43241
L65790 43241
" />
<path d="M65790 43241
L65760 43270
" />
<path d="M65760 43270
L65760 45166
" />
<path d="M64430 43495
L64430 44250
" />
<path d="M64430 44250
L64430 44266
" />
<path d="M64430 45247
L64430 44250
" />
<path d="M64537 45700
L64537 45355
" />
<path d="M64537 45355
L64430 45247
" />
<path d="M64488 45700
L64537 45700
" />
<path d="M64430 44266
L64175 44520
" />
<path d="M64175 44520
L63860 44520
" />
<path d="M63860 43241
L64175 43241
" />
<path d="M64175 43241
L64430 43495
" />
<path d="M63860 43241
L63204 43241
" />
<path d="M63204 43241
L63180 43216
" />
<path d="M61180 45492
L61180 46537
" />
<path d="M61180 46537
L60717 47000
" />
<path d="M61930 44750
L62392 44750
" />
<path d="M62392 44750
L62430 44712
" />
<path d="M61180 45492
L60437 45492
" />
<path d="M60437 45492
L60430 45500
" />
<path d="M62430 44712
L61910 44712
" />
<path d="M61910 44712
L61180 45442
" />
<path d="M61180 45442
L61180 45492
" />
<path d="M63180 44566
L62575 44566
" />
<path d="M62575 44566
L62430 44712
" />
<path d="M63860 44520
L63226 44520
" />
<path d="M63226 44520
L63180 44566
" />
<path d="M66930 43216
L66129 43216
" />
<path d="M66129 43216
L66105 43241
" />
<path d="M69180 47750
L68430 47750
" />
<path d="M67180 45250
L67180 45000
" />
<path d="M68430 47750
L68430 46500
" />
<path d="M68430 46500
L67180 45250
" />
<path d="M67180 45000
L66963 44783
" />
<path d="M66963 44783
L66680 44783
" />
<path d="M66105 44776
L66673 44776
" />
<path d="M66673 44776
L66680 44783
" />
<path d="M60359 43320
L60609 43320
" />
<path d="M62530 43216
L62746 43216
" />
<path d="M60609 43320
L60648 43281
" />
<path d="M60648 43281
L62465 43281
" />
<path d="M62465 43281
L62530 43216
" />
<path d="M62781 42985
L63430 42985
" />
</g>
<g style="fill:#FFFFFF; fill-opacity:0.0; 
stroke:#FFFFFF; stroke-width:196.85; stroke-opacity:1; 
stroke-linecap:round; stroke-linejoin:round;">
<path d="M63860 42985
L63475 42985
" />
<path d="M63475 42985
L63430 42985
" />
<path d="M59930 47000
L59930 47433
" />
<path d="M59930 47433
L59101 48261
" />
<path d="M59101 48261
L57684 48261
" />
<path d="M57684 48261
L57418 47995
" />
<path d="M57418 47995
L57418 45504
" />
<path d="M57418 45504
L57635 45287
" />
<path d="M57635 45287
L57707 45287
" />
<path d="M62746 43216
L62533 43216
" />
<path d="M62533 43216
L62479 43270
" />
<path d="M61930 44316
L61981 44264
" />
<path d="M61981 44264
L63860 44264
" />
<path d="M61180 44507
L61370 44316
" />
<path d="M61370 44316
L61930 44316
" />
<path d="M60430 44712
L60975 44712
" />
<path d="M60975 44712
L61180 44507
" />
<path d="M59930 47000
L59930 45212
" />
<path d="M59930 45212
L60430 44712
" />
<path d="M61930 47750
L60246 47750
" />
<path d="M60246 47750
L59930 47433
" />
</g>
<g style="fill:#FFFFFF; fill-opacity:0.0; 
stroke:#FFFFFF; stroke-width:98.4252; stroke-opacity:1; 
stroke-linecap:round; stroke-linejoin:round;">
<path d="M59930 47000
L59930 47334
" />
<path d="M59930 47334
L59052 48212
" />
<path d="M59052 48212
L57707 48212
" />
<path d="M57707 48212
L57467 47972
" />
<path d="M61930 47750
L60345 47750
" />
<path d="M60345 47750
L59930 47334
" />
<path d="M60359 43320
L58392 45287
" />
<path d="M58392 45287
L57707 45287
" />
<path d="M57707 45287
L57467 45527
" />
<path d="M57467 45527
L57467 47972
" />
<path d="M62746 43216
L62746 43019
" />
<path d="M62746 43019
L62781 42985
" />
<path d="M62180 44264
L63545 44264
" />
<path d="M61767 44264
L62180 44264
" />
<path d="M62128 44316
L61930 44316
" />
<path d="M62180 44264
L62128 44316
" />
<path d="M61180 44507
L61524 44507
" />
<path d="M61524 44507
L61767 44264
" />
<path d="M63545 44264
L63860 44264
" />
<path d="M63860 42985
L63680 42985
" />
<path d="M63499 45000
L63180 45000
" />
<path d="M63860 44776
L63723 44776
" />
<path d="M63723 44776
L63499 45000
" />
<path d="M63180 45000
L62930 45000
" />
<path d="M62930 45000
L62430 45500
" />
<path d="M63860 41961
L63545 41961
" />
<path d="M63545 41961
L63511 41996
" />
<path d="M63511 41996
L62554 41996
" />
<path d="M62554 41996
L62430 41872
" />
<path d="M62430 41872
L62430 41537
" />
</g>
<g style="fill:#FFFFFF; fill-opacity:0.0; 
stroke:#FFFFFF; stroke-width:196.85; stroke-opacity:1; 
stroke-linecap:round; stroke-linejoin:round;">
<path d="M65522 45700
L65522 43154
" />
<path d="M65522 43154
L65691 42985
" />
<path d="M65691 42985
L66105 42985
" />
<path d="M65522 45700
L65522 46342
" />
<path d="M65522 46342
L66930 47750
" />
</g>
<g style="fill:#FFFFFF; fill-opacity:0.0; 
stroke:#FFFFFF; stroke-width:98.4252; stroke-opacity:1; 
stroke-linecap:round; stroke-linejoin:round;">
<path d="M66444 42985
L66646 42783
" />
<path d="M66646 42783
L66930 42783
" />
<path d="M66105 42985
L66444 42985
" />
<path d="M66180 40000
L66180 40500
" />
<path d="M66425 41961
L66105 41961
" />
<path d="M66680 41707
L66425 41961
" />
<path d="M66680 41000
L66680 41707
" />
<path d="M66180 40500
L66680 41000
" />
<path d="M67180 40000
L67180 41457
" />
<path d="M67180 41457
L66419 42217
" />
<path d="M66419 42217
L66105 42217
" />
<path d="M68180 40000
L68180 40713
" />
<path d="M68180 40713
L66419 42473
" />
<path d="M66419 42473
L66105 42473
" />
<path d="M69180 40000
L69179 40000
" />
<path d="M69179 40000
L66449 42729
" />
<path d="M66449 42729
L66419 42729
" />
<path d="M66419 42729
L66105 42729
" />
<path d="M63860 41450
L63860 41272
" />
<path d="M63860 41272
L62973 40385
" />
<path d="M62973 40385
L58477 40385
" />
<path d="M58477 40385
L58363 40500
" />
<path d="M58363 40500
L57930 40500
" />
<path d="M64680 40000
L64680 40433
" />
<path d="M64680 40433
L65696 41450
" />
<path d="M65696 41450
L65790 41450
" />
<path d="M65790 41450
L66105 41450
" />
<path d="M66105 41705
L65385 41705
" />
<path d="M65385 41705
L63680 40000
" />
<path d="M67932 43497
L68680 42750
" />
<path d="M68680 42750
L69180 42750
" />
<path d="M66105 43497
L67932 43497
" />
<path d="M69180 43750
L66108 43750
" />
<path d="M66108 43750
L66105 43753
" />
<path d="M69180 44750
L68439 44009
" />
<path d="M68439 44009
L66105 44009
" />
<path d="M69180 45750
L67694 44264
" />
<path d="M67694 44264
L66105 44264
" />
<path d="M69180 46750
L68717 46287
" />
<path d="M68717 46287
L68717 46286
" />
<path d="M68717 46286
L66951 44520
" />
<path d="M66951 44520
L66419 44520
" />
<path d="M66419 44520
L66105 44520
" />
<path d="M58880 42600
L58730 42750
" />
<path d="M58730 42750
L57930 42750
" />
<path d="M62711 42217
L62328 42600
" />
<path d="M62328 42600
L58880 42600
" />
<path d="M63860 42217
L62711 42217
" />
<path d="M63860 42473
L62705 42473
" />
<path d="M62705 42473
L62252 42927
" />
<path d="M62252 42927
L58752 42927
" />
<path d="M58752 42927
L58264 43415
" />
<path d="M58264 43415
L57930 43750
" />
<path d="M63860 42729
L62700 42729
" />
<path d="M62700 42729
L62325 43104
" />
<path d="M62325 43104
L59575 43104
" />
<path d="M59575 43104
L59030 43650
" />
<path d="M59030 43650
L57930 44750
" />
<path d="M58680 45258
L58680 45500
" />
<path d="M58430 45750
L57930 45750
" />
<path d="M58680 45500
L58430 45750
" />
<path d="M63860 43497
L60441 43497
" />
<path d="M60441 43497
L58680 45258
" />
<path d="M63860 43753
L60436 43753
" />
<path d="M60436 43753
L58930 45259
" />
<path d="M58930 45259
L58930 46500
" />
<path d="M58930 46500
L58680 46750
" />
<path d="M58680 46750
L57930 46750
" />
<path d="M63860 44009
L60430 44009
" />
<path d="M59430 47500
L59180 47750
" />
<path d="M59180 47750
L57930 47750
" />
<path d="M60430 44009
L59430 45009
" />
<path d="M59430 45009
L59430 47500
" />
</g>
<g style="fill:#FFFFFF; fill-opacity:1.0; 
stroke:#FFFFFF; stroke-width:100; stroke-opacity:1; 
stroke-linecap:round; stroke-linejoin:round;">
<polyline style="fill-rule:evenodd;"
points="57230,45199
57388,45041
57410,45026
57412,45025
57378,44973
57333,44750
57378,44526
57505,44336
57634,44250
57505,44163
57378,43973
57333,43750
57378,43526
57505,43336
57521,43325
57502,43322
57417,43267
57360,43183
57340,43084
57340,42415
57357,42322
57412,42237
57496,42180
57595,42160
58264,42160
58357,42177
58442,42232
58499,42316
58519,42415
58519,42450
58606,42450
58668,42388
58765,42323
58880,42300
62204,42300
62320,42185
62218,42083
62179,42025
62101,42011
62016,41956
61958,41872
61938,41773
61938,41464
58519,41464
58526,41500
58481,41723
58354,41913
58165,42040
57941,42084
57918,42084
57694,42040
57505,41913
57378,41723
57333,41500
57378,41276
57505,41086
57521,41075
57502,41072
57417,41017
57360,40933
57340,40834
57340,40165
57357,40072
57412,39987
57496,39930
57595,39910
58264,39910
58357,39927
58442,39982
58499,40066
58503,40086
62973,40086
63088,40109
63118,40129
63095,40011
63095,39988
63139,39764
63266,39575
63456,39448
63680,39403
63903,39448
64093,39575
64104,39591
64107,39572
64162,39487
64246,39430
64345,39410
65014,39410
65107,39427
65192,39482
65249,39566
65269,39665
65269,40334
65252,40427
65197,40512
65188,40518
65803,41133
65888,41116
66321,41116
66380,41127
66380,41123
65968,40711
65903,40614
65898,40589
65845,40589
65752,40572
65667,40517
65610,40433
65590,40334
65590,39665
65607,39572
65662,39487
65746,39430
65845,39410
66514,39410
66607,39427
66692,39482
66749,39566
66754,39592
66766,39575
66956,39448
67180,39403
67403,39448
67593,39575
67680,39704
67766,39575
67956,39448
68180,39403
68403,39448
68593,39575
68680,39704
68766,39575
68956,39448
69180,39403
69403,39448
69593,39575
69720,39764
69764,39988
69764,40011
69720,40235
69593,40424
69403,40551
69180,40596
69035,40567
67153,42448
67206,42482
67263,42566
67283,42665
67283,42901
67265,42994
67259,43003
67278,43048
67278,43104
67215,43166
67278,43166
67278,43198
67808,43198
68468,42538
68565,42473
68590,42468
68590,42415
68607,42322
68662,42237
68746,42180
68845,42160
69514,42160
69607,42177
69692,42232
69749,42316
69769,42415
69769,43084
69752,43177
69697,43262
69613,43319
69587,43324
69604,43336
69731,43526
69776,43750
69731,43973
69604,44163
69475,44250
69604,44336
69731,44526
69776,44750
69731,44973
69604,45163
69475,45250
69604,45336
69731,45526
69776,45750
69731,45973
69604,46163
69475,46250
69604,46336
69731,46526
69776,46750
69731,46973
69604,47163
69475,47250
69604,47336
69731,47526
69776,47750
69731,47973
69604,48163
69415,48290
69191,48334
69168,48334
68944,48290
68755,48163
68678,48049
68430,48049
68315,48026
68218,47961
68153,47864
68130,47750
68130,46623
66986,45479
66920,45546
66828,45584
66791,45584
66729,45522
66729,45266
66630,45266
66630,45522
66568,45584
66531,45584
66439,45546
66369,45476
66331,45384
66331,45329
66394,45266
66630,45266
66729,45266
66737,45266
66737,45166
66729,45166
66729,45158
66630,45158
66630,45166
66394,45166
66335,45107
66321,45110
65888,45110
65870,45107
65870,45209
65910,45216
65995,45271
66052,45354
66072,45453
66072,45946
66054,46038
66000,46123
65916,46180
65870,46190
65870,46197
66833,47160
67264,47160
67357,47177
67442,47232
67499,47316
67519,47415
67519,48084
67502,48177
67447,48262
67363,48319
67264,48339
66595,48339
66502,48322
66417,48267
66360,48183
66351,48141
66231,48250
66070,48317
65980,48269
65980,47800
65880,47800
65880,48269
65789,48317
65628,48250
65459,48096
65430,48034
65400,48096
65231,48250
65070,48317
64980,48269
64980,47800
64880,47800
64880,48269
64789,48317
64628,48250
64459,48096
64430,48034
64400,48096
64231,48250
64070,48317
63980,48269
63980,47800
63880,47800
63880,48269
63789,48317
63628,48250
63459,48096
63430,48034
63400,48096
63231,48250
63070,48317
62980,48269
62980,47800
63880,47800
63980,47800
64880,47800
64980,47800
65880,47800
65980,47800
65987,47800
65987,47700
65980,47700
65980,47692
65880,47692
65880,47700
64980,47700
64980,47230
65070,47182
65231,47249
65400,47403
65430,47465
65459,47403
65628,47249
65789,47182
65879,47230
65879,47192
65275,46588
65275,46588
65200,46475
65195,46450
65173,46342
65173,46342
65173,46190
65134,46183
65049,46128
65030,46101
64974,46158
64882,46196
64723,46196
64723,47209
64789,47182
64880,47230
64880,47700
63980,47700
63980,47692
63880,47692
63880,47700
62980,47700
62980,47692
62880,47692
62880,47700
62872,47700
62872,47800
62880,47800
62880,48269
62789,48317
62628,48250
62459,48096
62433,48040
62343,48174
62153,48301
61930,48346
61706,48301
61516,48174
61465,48098
60246,48098
60246,48098
60135,48076
60113,48071
60000,47996
59930,47925
59347,48508
59347,48508
59234,48583
59212,48588
59101,48610
59101,48610
57684,48610
57684,48610
57573,48588
57550,48583
57437,48508
57230,48300
57230,48700
69880,48700
69880,39300
57230,39300
57230,45199
" /> 
<polyline style="fill-rule:evenodd;"
points="63680,40596
63589,40578
64072,41061
64113,41123
64170,41133
64255,41188
64312,41272
64332,41371
64332,41528
64322,41579
64332,41627
64332,41784
64322,41835
64332,41883
64332,42040
64322,42091
64332,42138
64332,42296
64322,42347
64332,42394
64332,42552
64322,42603
64332,42650
64332,42808
64322,42859
64332,42906
64332,43064
64324,43105
64327,43112
64327,43139
64316,43150
64314,43156
64260,43241
64259,43242
64312,43319
64314,43330
64327,43343
64327,43369
64324,43377
64332,43418
64332,43575
64322,43627
64332,43674
64332,43831
64322,43882
64332,43930
64332,44087
64322,44138
64332,44186
64332,44343
64324,44385
64327,44392
64327,44418
64316,44430
64314,44436
64260,44521
64259,44521
64312,44598
64314,44609
64327,44622
64327,44649
64324,44657
64332,44698
64332,44855
64314,44948
64260,45033
64176,45090
64077,45110
63812,45110
63711,45211
63614,45276
63499,45299
63456,45299
63377,45352
63278,45373
63081,45373
62996,45356
62921,45432
62921,45736
62903,45828
62848,45913
62765,45971
62666,45991
62193,45991
62101,45973
62016,45918
61958,45835
61938,45736
61938,45604
61676,45604
61676,45837
61638,45929
61567,45999
61475,46037
61292,46037
61230,45974
61230,45542
61613,45542
61676,45604
61938,45604
61938,45263
61956,45171
62010,45086
61979,45055
61979,44896
61938,44779
61944,44692
61880,44692
61880,44700
61872,44700
61872,44800
61880,44800
61880,45055
61818,45118
61781,45118
61689,45080
61619,45009
61607,44981
61581,44999
61638,45055
61676,45147
61676,45379
61613,45442
61230,45442
61230,45434
61130,45434
61130,45442
61122,45442
61122,45542
61130,45542
61130,45974
61067,46037
60884,46037
60792,45999
60721,45929
60694,45861
60679,45928
60496,45991
60303,45979
60278,45968
60278,46538
60343,46581
60381,46636
60402,46614
60448,46660
60467,46571
60650,46508
60843,46520
60966,46571
60986,46660
60717,46929
60711,46923
60641,46994
60646,47000
60641,47005
60711,47076
60717,47070
60986,47339
60972,47401
61465,47401
61516,47325
61636,47245
61636,46933
61208,46933
61196,47126
61145,47249
61057,47268
60788,47000
61057,46731
61145,46750
61208,46933
61636,46933
61636,46110
64053,46110
64030,46087
63992,45995
63992,45812
64055,45750
64487,45750
64487,45757
64587,45757
64587,45750
64595,45750
64595,45650
64587,45650
64587,45266
64487,45266
64487,45650
64055,45650
63992,45587
63992,45404
64030,45312
64100,45241
64192,45203
64425,45203
64487,45266
64587,45266
64650,45203
64882,45203
64974,45241
65030,45297
65044,45276
65127,45219
65173,45209
65173,43154
65173,43154
65200,43021
65200,43021
65275,42908
65275,42908
65445,42739
65451,42735
65558,42663
65580,42659
65634,42648
65643,42599
65633,42552
65633,42394
65643,42343
65633,42296
65633,42138
65643,42087
65633,42040
65633,42005
65385,42005
65271,41982
65174,41917
63824,40567
63680,40596
" /> 
<polyline style="fill-rule:evenodd;"
points="60353,45494
60359,45500
60353,45505
60424,45576
60430,45570
60435,45576
60506,45505
60500,45500
60506,45494
60435,45423
60430,45429
60424,45423
60353,45494
" /> 
<polyline style="fill-rule:evenodd;"
points="62353,44707
62359,44712
62353,44718
62424,44788
62430,44783
62435,44788
62506,44718
62500,44712
62506,44707
62435,44636
62430,44641
62424,44636
62353,44707
" /> 
<polyline style="fill-rule:evenodd;"
points="62353,40744
62359,40750
62353,40755
62424,40826
62430,40820
62435,40826
62506,40755
62500,40750
62506,40744
62446,40685
62413,40685
62353,40744
" /> 
</g>
<g style="fill:#000000; fill-opacity:1.0; 
stroke:#000000; stroke-width:100; stroke-opacity:1; 
stroke-linecap:round; stroke-linejoin:round;">
</g>
<g style="fill:#000000; fill-opacity:1.0; 
stroke:#000000; stroke-width:0; stroke-opacity:1; 
stroke-linecap:round; stroke-linejoin:round;">
<circle cx="59930" cy="47000" r="68.8976" /> 
</g>
<g style="fill:#000000; fill-opacity:1.0; 
stroke:#000000; stroke-width:39.3701; stroke-opacity:1; 
stroke-linecap:round; stroke-linejoin:round;">
</g>
<g style="fill:#000000; fill-opacity:1.0; 
stroke:#000000; stroke-width:0; stroke-opacity:1; 
stroke-linecap:round; stroke-linejoin:round;">
<circle cx="60717.4" cy="47000" r="68.8976" /> 
</g>
<g style="fill:#000000; fill-opacity:1.0; 
stroke:#000000; stroke-width:39.3701; stroke-opacity:1; 
stroke-linecap:round; stroke-linejoin:round;">
</g>
<g style="fill:#000000; fill-opacity:1.0; 
stroke:#000000; stroke-width:0; stroke-opacity:1; 
stroke-linecap:round; stroke-linejoin:round;">
<circle cx="62430" cy="45500" r="68.8976" /> 
</g>
<g style="fill:#000000; fill-opacity:1.0; 
stroke:#000000; stroke-width:39.3701; stroke-opacity:1; 
stroke-linecap:round; stroke-linejoin:round;">
</g>
<g style="fill:#000000; fill-opacity:1.0; 
stroke:#000000; stroke-width:0; stroke-opacity:1; 
stroke-linecap:round; stroke-linejoin:round;">
<circle cx="62430" cy="44712.6" r="68.8976" /> 
</g>
<g style="fill:#000000; fill-opacity:1.0; 
stroke:#000000; stroke-width:39.3701; stroke-opacity:1; 
stroke-linecap:round; stroke-linejoin:round;">
</g>
<g style="fill:#000000; fill-opacity:1.0; 
stroke:#000000; stroke-width:0; stroke-opacity:1; 
stroke-linecap:round; stroke-linejoin:round;">
<circle cx="62430" cy="41537.4" r="68.8976" /> 
</g>
<g style="fill:#000000; fill-opacity:1.0; 
stroke:#000000; stroke-width:39.3701; stroke-opacity:1; 
stroke-linecap:round; stroke-linejoin:round;">
</g>
<g style="fill:#000000; fill-opacity:1.0; 
stroke:#000000; stroke-width:0; stroke-opacity:1; 
stroke-linecap:round; stroke-linejoin:round;">
<circle cx="62430" cy="40750" r="68.8976" /> 
</g>
<g style="fill:#000000; fill-opacity:1.0; 
stroke:#000000; stroke-width:39.3701; stroke-opacity:1; 
stroke-linecap:round; stroke-linejoin:round;">
</g>
<g style="fill:#000000; fill-opacity:1.0; 
stroke:#000000; stroke-width:0; stroke-opacity:1; 
stroke-linecap:round; stroke-linejoin:round;">
<circle cx="60430" cy="44712.6" r="68.8976" /> 
</g>
<g style="fill:#000000; fill-opacity:1.0; 
stroke:#000000; stroke-width:39.3701; stroke-opacity:1; 
stroke-linecap:round; stroke-linejoin:round;">
</g>
<g style="fill:#000000; fill-opacity:1.0; 
stroke:#000000; stroke-width:0; stroke-opacity:1; 
stroke-linecap:round; stroke-linejoin:round;">
<circle cx="60430" cy="45500" r="68.8976" /> 
</g>
<g style="fill:#000000; fill-opacity:1.0; 
stroke:#000000; stroke-width:39.3701; stroke-opacity:1; 
stroke-linecap:round; stroke-linejoin:round;">
</g>
<g style="fill:#000000; fill-opacity:1.0; 
stroke:#000000; stroke-width:0; stroke-opacity:1; 
stroke-linecap:round; stroke-linejoin:round;">
<circle cx="66180" cy="40000" r="68.8976" /> 
</g>
<g style="fill:#000000; fill-opacity:1.0; 
stroke:#000000; stroke-width:39.3701; stroke-opacity:1; 
stroke-linecap:round; stroke-linejoin:round;">
</g>
<g style="fill:#000000; fill-opacity:1.0; 
stroke:#000000; stroke-width:0; stroke-opacity:1; 
stroke-linecap:round; stroke-linejoin:round;">
<circle cx="67180" cy="40000" r="68.8976" /> 
</g>
<g style="fill:#000000; fill-opacity:1.0; 
stroke:#000000; stroke-width:39.3701; stroke-opacity:1; 
stroke-linecap:round; stroke-linejoin:round;">
</g>
<g style="fill:#000000; fill-opacity:1.0; 
stroke:#000000; stroke-width:0; stroke-opacity:1; 
stroke-linecap:round; stroke-linejoin:round;">
<circle cx="68180" cy="40000" r="68.8976" /> 
</g>
<g style="fill:#000000; fill-opacity:1.0; 
stroke:#000000; stroke-width:39.3701; stroke-opacity:1; 
stroke-linecap:round; stroke-linejoin:round;">
</g>
<g style="fill:#000000; fill-opacity:1.0; 
stroke:#000000; stroke-width:0; stroke-opacity:1; 
stroke-linecap:round; stroke-linejoin:round;">
<circle cx="69180" cy="40000" r="68.8976" /> 
</g>
<g style="fill:#000000; fill-opacity:1.0; 
stroke:#000000; stroke-width:39.3701; stroke-opacity:1; 
stroke-linecap:round; stroke-linejoin:round;">
</g>
<g style="fill:#000000; fill-opacity:1.0; 
stroke:#000000; stroke-width:0; stroke-opacity:1; 
stroke-linecap:round; stroke-linejoin:round;">
<circle cx="57930" cy="40500" r="68.8976" /> 
</g>
<g style="fill:#000000; fill-opacity:1.0; 
stroke:#000000; stroke-width:39.3701; stroke-opacity:1; 
stroke-linecap:round; stroke-linejoin:round;">
</g>
<g style="fill:#000000; fill-opacity:1.0; 
stroke:#000000; stroke-width:0; stroke-opacity:1; 
stroke-linecap:round; stroke-linejoin:round;">
<circle cx="57930" cy="41500" r="68.8976" /> 
</g>
<g style="fill:#000000; fill-opacity:1.0; 
stroke:#000000; stroke-width:39.3701; stroke-opacity:1; 
stroke-linecap:round; stroke-linejoin:round;">
</g>
<g style="fill:#000000; fill-opacity:1.0; 
stroke:#000000; stroke-width:0; stroke-opacity:1; 
stroke-linecap:round; stroke-linejoin:round;">
<circle cx="64680" cy="40000" r="68.8976" /> 
</g>
<g style="fill:#000000; fill-opacity:1.0; 
stroke:#000000; stroke-width:39.3701; stroke-opacity:1; 
stroke-linecap:round; stroke-linejoin:round;">
</g>
<g style="fill:#000000; fill-opacity:1.0; 
stroke:#000000; stroke-width:0; stroke-opacity:1; 
stroke-linecap:round; stroke-linejoin:round;">
<circle cx="63680" cy="40000" r="68.8976" /> 
</g>
<g style="fill:#000000; fill-opacity:1.0; 
stroke:#000000; stroke-width:39.3701; stroke-opacity:1; 
stroke-linecap:round; stroke-linejoin:round;">
</g>
<g style="fill:#000000; fill-opacity:1.0; 
stroke:#000000; stroke-width:0; stroke-opacity:1; 
stroke-linecap:round; stroke-linejoin:round;">
<circle cx="69180" cy="42750" r="68.8976" /> 
</g>
<g style="fill:#000000; fill-opacity:1.0; 
stroke:#000000; stroke-width:39.3701; stroke-opacity:1; 
stroke-linecap:round; stroke-linejoin:round;">
</g>
<g style="fill:#000000; fill-opacity:1.0; 
stroke:#000000; stroke-width:0; stroke-opacity:1; 
stroke-linecap:round; stroke-linejoin:round;">
<circle cx="69180" cy="43750" r="68.8976" /> 
</g>
<g style="fill:#000000; fill-opacity:1.0; 
stroke:#000000; stroke-width:39.3701; stroke-opacity:1; 
stroke-linecap:round; stroke-linejoin:round;">
</g>
<g style="fill:#000000; fill-opacity:1.0; 
stroke:#000000; stroke-width:0; stroke-opacity:1; 
stroke-linecap:round; stroke-linejoin:round;">
<circle cx="69180" cy="44750" r="68.8976" /> 
</g>
<g style="fill:#000000; fill-opacity:1.0; 
stroke:#000000; stroke-width:39.3701; stroke-opacity:1; 
stroke-linecap:round; stroke-linejoin:round;">
</g>
<g style="fill:#000000; fill-opacity:1.0; 
stroke:#000000; stroke-width:0; stroke-opacity:1; 
stroke-linecap:round; stroke-linejoin:round;">
<circle cx="69180" cy="45750" r="68.8976" /> 
</g>
<g style="fill:#000000; fill-opacity:1.0; 
stroke:#000000; stroke-width:39.3701; stroke-opacity:1; 
stroke-linecap:round; stroke-linejoin:round;">
</g>
<g style="fill:#000000; fill-opacity:1.0; 
stroke:#000000; stroke-width:0; stroke-opacity:1; 
stroke-linecap:round; stroke-linejoin:round;">
<circle cx="69180" cy="46750" r="68.8976" /> 
</g>
<g style="fill:#000000; fill-opacity:1.0; 
stroke:#000000; stroke-width:39.3701; stroke-opacity:1; 
stroke-linecap:round; stroke-linejoin:round;">
</g>
<g style="fill:#000000; fill-opacity:1.0; 
stroke:#000000; stroke-width:0; stroke-opacity:1; 
stroke-linecap:round; stroke-linejoin:round;">
<circle cx="69180" cy="47750" r="68.8976" /> 
</g>
<g style="fill:#000000; fill-opacity:1.0; 
stroke:#000000; stroke-width:39.3701; stroke-opacity:1; 
stroke-linecap:round; stroke-linejoin:round;">
</g>
<g style="fill:#000000; fill-opacity:1.0; 
stroke:#000000; stroke-width:0; stroke-opacity:1; 
stroke-linecap:round; stroke-linejoin:round;">
<circle cx="57930" cy="42750" r="68.8976" /> 
</g>
<g style="fill:#000000; fill-opacity:1.0; 
stroke:#000000; stroke-width:39.3701; stroke-opacity:1; 
stroke-linecap:round; stroke-linejoin:round;">
</g>
<g style="fill:#000000; fill-opacity:1.0; 
stroke:#000000; stroke-width:0; stroke-opacity:1; 
stroke-linecap:round; stroke-linejoin:round;">
<circle cx="57930" cy="43750" r="68.8976" /> 
</g>
<g style="fill:#000000; fill-opacity:1.0; 
stroke:#000000; stroke-width:39.3701; stroke-opacity:1; 
stroke-linecap:round; stroke-linejoin:round;">
</g>
<g style="fill:#000000; fill-opacity:1.0; 
stroke:#000000; stroke-width:0; stroke-opacity:1; 
stroke-linecap:round; stroke-linejoin:round;">
<circle cx="57930" cy="44750" r="68.8976" /> 
</g>
<g style="fill:#000000; fill-opacity:1.0; 
stroke:#000000; stroke-width:39.3701; stroke-opacity:1; 
stroke-linecap:round; stroke-linejoin:round;">
</g>
<g style="fill:#000000; fill-opacity:1.0; 
stroke:#000000; stroke-width:0; stroke-opacity:1; 
stroke-linecap:round; stroke-linejoin:round;">
<circle cx="57930" cy="45750" r="68.8976" /> 
</g>
<g style="fill:#000000; fill-opacity:1.0; 
stroke:#000000; stroke-width:39.3701; stroke-opacity:1; 
stroke-linecap:round; stroke-linejoin:round;">
</g>
<g style="fill:#000000; fill-opacity:1.0; 
stroke:#000000; stroke-width:0; stroke-opacity:1; 
stroke-linecap:round; stroke-linejoin:round;">
<circle cx="57930" cy="46750" r="68.8976" /> 
</g>
<g style="fill:#000000; fill-opacity:1.0; 
stroke:#000000; stroke-width:39.3701; stroke-opacity:1; 
stroke-linecap:round; stroke-linejoin:round;">
</g>
<g style="fill:#000000; fill-opacity:1.0; 
stroke:#000000; stroke-width:0; stroke-opacity:1; 
stroke-linecap:round; stroke-linejoin:round;">
<circle cx="57930" cy="47750" r="68.8976" /> 
</g>
<g style="fill:#000000; fill-opacity:1.0; 
stroke:#000000; stroke-width:39.3701; stroke-opacity:1; 
stroke-linecap:round; stroke-linejoin:round;">
</g>
<g style="fill:#000000; fill-opacity:1.0; 
stroke:#000000; stroke-width:0; stroke-opacity:1; 
stroke-linecap:round; stroke-linejoin:round;">
<circle cx="66930" cy="47750" r="68.8976" /> 
</g>
<g style="fill:#000000; fill-opacity:1.0; 
stroke:#000000; stroke-width:39.3701; stroke-opacity:1; 
stroke-linecap:round; stroke-linejoin:round;">
</g>
<g style="fill:#000000; fill-opacity:1.0; 
stroke:#000000; stroke-width:0; stroke-opacity:1; 
stroke-linecap:round; stroke-linejoin:round;">
<circle cx="65930" cy="47750" r="68.8976" /> 
</g>
<g style="fill:#000000; fill-opacity:1.0; 
stroke:#000000; stroke-width:39.3701; stroke-opacity:1; 
stroke-linecap:round; stroke-linejoin:round;">
</g>
<g style="fill:#000000; fill-opacity:1.0; 
stroke:#000000; stroke-width:0; stroke-opacity:1; 
stroke-linecap:round; stroke-linejoin:round;">
<circle cx="64930" cy="47750" r="68.8976" /> 
</g>
<g style="fill:#000000; fill-opacity:1.0; 
stroke:#000000; stroke-width:39.3701; stroke-opacity:1; 
stroke-linecap:round; stroke-linejoin:round;">
</g>
<g style="fill:#000000; fill-opacity:1.0; 
stroke:#000000; stroke-width:0; stroke-opacity:1; 
stroke-linecap:round; stroke-linejoin:round;">
<circle cx="63930" cy="47750" r="68.8976" /> 
</g>
<g style="fill:#000000; fill-opacity:1.0; 
stroke:#000000; stroke-width:39.3701; stroke-opacity:1; 
stroke-linecap:round; stroke-linejoin:round;">
</g>
<g style="fill:#000000; fill-opacity:1.0; 
stroke:#000000; stroke-width:0; stroke-opacity:1; 
stroke-linecap:round; stroke-linejoin:round;">
<circle cx="62930" cy="47750" r="68.8976" /> 
</g>
<g style="fill:#000000; fill-opacity:1.0; 
stroke:#000000; stroke-width:39.3701; stroke-opacity:1; 
stroke-linecap:round; stroke-linejoin:round;">
</g>
<g style="fill:#000000; fill-opacity:1.0; 
stroke:#000000; stroke-width:0; stroke-opacity:1; 
stroke-linecap:round; stroke-linejoin:round;">
<circle cx="61930" cy="47750" r="68.8976" /> 
</g>
<g style="fill:#000000; fill-opacity:1.0; 
stroke:#000000; stroke-width:39.3701; stroke-opacity:1; 
stroke-linecap:round; stroke-linejoin:round;">
</g>
<g style="fill:#FFFFFF; fill-opacity:1.0; 
stroke:#FFFFFF; stroke-width:39.3701; stroke-opacity:1; 
stroke-linecap:round; stroke-linejoin:round;">
</g> 
</svg>
