<?xml version="1.0" standalone="no"?>
 <!DOCTYPE svg PUBLIC "-//W3C//DTD SVG 1.1//EN" 
 "http://www.w3.org/Graphics/SVG/1.1/DTD/svg11.dtd"> 
<svg xmlns="http://www.w3.org/2000/svg" version="1.1" 
    width="29.7002cm" height="21.0007cm" viewBox="0 0 116930 82680 ">
<title>SVG Picture created as ad8656-F.Cu.svg date 2017/04/25 22:17:16 </title>
  <desc>Picture generated by PCBNEW </desc>
<g style="fill:#000000; fill-opacity:1;stroke:#000000; stroke-opacity:1;
stroke-linecap:round; stroke-linejoin:round; "
 transform="translate(0 0) scale(1 1)">
</g>
<g style="fill:#000000; fill-opacity:0.0; 
stroke:#000000; stroke-width:-0.000393701; stroke-opacity:1; 
stroke-linecap:round; stroke-linejoin:round;">
</g>
<g style="fill:#000000; fill-opacity:1.0; 
stroke:#000000; stroke-width:39.3701; stroke-opacity:1; 
stroke-linecap:round; stroke-linejoin:round;">
<rect x="27717.3" y="26628.7" width="20118.8" height="11530.3" rx="0" />
</g>
<g style="fill:#FFFFFF; fill-opacity:1.0; 
stroke:#FFFFFF; stroke-width:39.3701; stroke-opacity:1; 
stroke-linecap:round; stroke-linejoin:round;">
</g>
<g style="fill:#FFFFFF; fill-opacity:0.0; 
stroke:#FFFFFF; stroke-width:39.3701; stroke-opacity:1; 
stroke-linecap:round; stroke-linejoin:round;">
</g>
<g style="fill:#FFFFFF; fill-opacity:0.0; 
stroke:#FFFFFF; stroke-width:118.11; stroke-opacity:1; 
stroke-linecap:round; stroke-linejoin:round;">
<path d="M43842 29967
L43842 29376
L43701 29376
L43617 29404
L43561 29460
L43532 29517
L43504 29629
L43504 29714
L43532 29826
L43561 29882
L43617 29939
L43701 29967
L43842 29967
" />
<path d="M43251 29967
L43251 29376
" />
<path d="M42773 29657
L42970 29657
" />
<path d="M42970 29967
L42970 29376
L42689 29376
" />
<path d="M42267 29657
L42464 29657
" />
<path d="M42464 29967
L42464 29376
L42183 29376
" />
<path d="M41536 29798
L41255 29798
" />
<path d="M41592 29967
L41395 29376
L41198 29967
" />
<path d="M41001 29967
L41001 29376
L40805 29798
L40608 29376
L40608 29967
" />
<path d="M40327 29967
L40327 29376
L40102 29376
L40045 29404
L40017 29432
L39989 29489
L39989 29573
L40017 29629
L40045 29657
L40102 29685
L40327 29685
" />
</g>
<g style="fill:#FFFFFF; fill-opacity:0.0; 
stroke:#FFFFFF; stroke-width:0; stroke-opacity:1; 
stroke-linecap:round; stroke-linejoin:round;">
</g>
<g style="fill:#FFFFFF; fill-opacity:1.0; 
stroke:#FFFFFF; stroke-width:0; stroke-opacity:1; 
stroke-linecap:round; stroke-linejoin:round;">
<polyline style="fill-rule:evenodd;"
points="37136,33755
37136,33992
37746,33992
37746,33755
37136,33755
" /> 
<polyline style="fill-rule:evenodd;"
points="37136,33255
37136,33492
37746,33492
37746,33255
37136,33255
" /> 
<polyline style="fill-rule:evenodd;"
points="37136,32755
37136,32992
37746,32992
37746,32755
37136,32755
" /> 
<polyline style="fill-rule:evenodd;"
points="37136,32255
37136,32492
37746,32492
37746,32255
37136,32255
" /> 
<polyline style="fill-rule:evenodd;"
points="39262,32255
39262,32492
39872,32492
39872,32255
39262,32255
" /> 
<polyline style="fill-rule:evenodd;"
points="39262,32755
39262,32992
39872,32992
39872,32755
39262,32755
" /> 
<polyline style="fill-rule:evenodd;"
points="39262,33255
39262,33492
39872,33492
39872,33255
39262,33255
" /> 
<polyline style="fill-rule:evenodd;"
points="39262,33755
39262,33992
39872,33992
39872,33755
39262,33755
" /> 
<polyline style="fill-rule:evenodd;"
points="33215,34864
33844,34864
33844,34235
33215,34235
33215,34864
" /> 
<circle cx="33530" cy="33565.7" r="314.961" /> 
</g>
<g style="fill:#FFFFFF; fill-opacity:1.0; 
stroke:#FFFFFF; stroke-width:39.3701; stroke-opacity:1; 
stroke-linecap:round; stroke-linejoin:round;">
</g>
<g style="fill:#FFFFFF; fill-opacity:1.0; 
stroke:#FFFFFF; stroke-width:0; stroke-opacity:1; 
stroke-linecap:round; stroke-linejoin:round;">
<polyline style="fill-rule:evenodd;"
points="31332,34115
31332,34784
32002,34784
32002,34115
31332,34115
" /> 
</g>
<g style="fill:#FFFFFF; fill-opacity:1.0; 
stroke:#FFFFFF; stroke-width:669.291; stroke-opacity:1; 
stroke-linecap:round; stroke-linejoin:round;">
</g>
<g style="fill:#FFFFFF; fill-opacity:0.0; 
stroke:#FFFFFF; stroke-width:669.291; stroke-opacity:1; 
stroke-linecap:round; stroke-linejoin:round;">
<path d="M31667 33450
L31667 33450
" />
<path d="M31667 32450
L31667 32450
" />
<path d="M31667 31450
L31667 31450
" />
<path d="M31667 30450
L31667 30450
" />
</g>
<g style="fill:#FFFFFF; fill-opacity:0.0; 
stroke:#FFFFFF; stroke-width:0; stroke-opacity:1; 
stroke-linecap:round; stroke-linejoin:round;">
</g>
<g style="fill:#FFFFFF; fill-opacity:1.0; 
stroke:#FFFFFF; stroke-width:0; stroke-opacity:1; 
stroke-linecap:round; stroke-linejoin:round;">
<polyline style="fill-rule:evenodd;"
points="32448,30272
32448,30627
32920,30627
32920,30272
32448,30272
" /> 
<polyline style="fill-rule:evenodd;"
points="33314,30272
33314,30627
33786,30627
33786,30272
33314,30272
" /> 
<polyline style="fill-rule:evenodd;"
points="40858,32286
41213,32286
41213,31813
40858,31813
40858,32286
" /> 
<polyline style="fill-rule:evenodd;"
points="40858,31420
41213,31420
41213,30947
40858,30947
40858,31420
" /> 
<polyline style="fill-rule:evenodd;"
points="44220,32184
44220,31515
43551,31515
43551,32184
44220,32184
" /> 
</g>
<g style="fill:#FFFFFF; fill-opacity:1.0; 
stroke:#FFFFFF; stroke-width:669.291; stroke-opacity:1; 
stroke-linecap:round; stroke-linejoin:round;">
</g>
<g style="fill:#FFFFFF; fill-opacity:0.0; 
stroke:#FFFFFF; stroke-width:669.291; stroke-opacity:1; 
stroke-linecap:round; stroke-linejoin:round;">
<path d="M43885 32850
L43885 32850
" />
<path d="M43885 33850
L43885 33850
" />
<path d="M43885 34850
L43885 34850
" />
</g>
<g style="fill:#FFFFFF; fill-opacity:0.0; 
stroke:#FFFFFF; stroke-width:0; stroke-opacity:1; 
stroke-linecap:round; stroke-linejoin:round;">
</g>
<g style="fill:#FFFFFF; fill-opacity:1.0; 
stroke:#FFFFFF; stroke-width:0; stroke-opacity:1; 
stroke-linecap:round; stroke-linejoin:round;">
<polyline style="fill-rule:evenodd;"
points="41615,34672
41615,35027
42087,35027
42087,34672
41615,34672
" /> 
<polyline style="fill-rule:evenodd;"
points="42481,34672
42481,35027
42953,35027
42953,34672
42481,34672
" /> 
<polyline style="fill-rule:evenodd;"
points="39843,34468
39843,34822
40315,34822
40315,34468
39843,34468
" /> 
<polyline style="fill-rule:evenodd;"
points="40709,34468
40709,34822
41181,34822
41181,34468
40709,34468
" /> 
<polyline style="fill-rule:evenodd;"
points="41616,31922
41616,32277
42089,32277
42089,31922
41616,31922
" /> 
<polyline style="fill-rule:evenodd;"
points="42482,31922
42482,32277
42955,32277
42955,31922
42482,31922
" /> 
<polyline style="fill-rule:evenodd;"
points="40864,33998
40864,33801
40628,33801
40628,33998
40864,33998
" /> 
<polyline style="fill-rule:evenodd;"
points="40431,33998
40431,33801
40195,33801
40195,33998
40431,33998
" /> 
<polyline style="fill-rule:evenodd;"
points="35880,30903
35880,31396
36470,31396
36470,30903
35880,30903
" /> 
<polyline style="fill-rule:evenodd;"
points="36864,30903
36864,31396
37454,31396
37454,30903
36864,30903
" /> 
<polyline style="fill-rule:evenodd;"
points="35890,33119
36244,33119
36244,32646
35890,32646
35890,33119
" /> 
<polyline style="fill-rule:evenodd;"
points="35890,32253
36244,32253
36244,31780
35890,31780
35890,32253
" /> 
<polyline style="fill-rule:evenodd;"
points="40208,32286
40563,32286
40563,31813
40208,31813
40208,32286
" /> 
<polyline style="fill-rule:evenodd;"
points="40208,31420
40563,31420
40563,30947
40208,30947
40208,31420
" /> 
<polyline style="fill-rule:evenodd;"
points="35890,34736
36244,34736
36244,34263
35890,34263
35890,34736
" /> 
<polyline style="fill-rule:evenodd;"
points="35890,33870
36244,33870
36244,33397
35890,33397
35890,33870
" /> 
<polyline style="fill-rule:evenodd;"
points="41658,33969
42013,33969
42013,33496
41658,33496
41658,33969
" /> 
<polyline style="fill-rule:evenodd;"
points="41658,33103
42013,33103
42013,32630
41658,32630
41658,33103
" /> 
<polyline style="fill-rule:evenodd;"
points="34840,32686
35194,32686
35194,32213
34840,32213
34840,32686
" /> 
<polyline style="fill-rule:evenodd;"
points="34840,31820
35194,31820
35194,31347
34840,31347
34840,31820
" /> 
<polyline style="fill-rule:evenodd;"
points="34544,30447
34190,30447
34190,30920
34544,30920
34544,30447
" /> 
<polyline style="fill-rule:evenodd;"
points="34544,31313
34190,31313
34190,31786
34544,31786
34544,31313
" /> 
<polyline style="fill-rule:evenodd;"
points="32598,32272
32598,32627
33070,32627
33070,32272
32598,32272
" /> 
<polyline style="fill-rule:evenodd;"
points="33464,32272
33464,32627
33936,32627
33936,32272
33464,32272
" /> 
<polyline style="fill-rule:evenodd;"
points="34952,34864
35582,34864
35582,34235
34952,34235
34952,34864
" /> 
<circle cx="35267.4" cy="33565.7" r="314.961" /> 
</g>
<g style="fill:#FFFFFF; fill-opacity:1.0; 
stroke:#FFFFFF; stroke-width:39.3701; stroke-opacity:1; 
stroke-linecap:round; stroke-linejoin:round;">
</g>
<g style="fill:#FFFFFF; fill-opacity:1.0; 
stroke:#FFFFFF; stroke-width:0; stroke-opacity:1; 
stroke-linecap:round; stroke-linejoin:round;">
<polyline style="fill-rule:evenodd;"
points="35532,29250
34902,29250
34902,29880
35532,29880
35532,29250
" /> 
<circle cx="35217.4" cy="30550" r="314.961" /> 
</g>
<g style="fill:#FFFFFF; fill-opacity:1.0; 
stroke:#FFFFFF; stroke-width:39.3701; stroke-opacity:1; 
stroke-linecap:round; stroke-linejoin:round;">
</g>
<g style="fill:#FFFFFF; fill-opacity:1.0; 
stroke:#FFFFFF; stroke-width:157.48; stroke-opacity:1; 
stroke-linecap:round; stroke-linejoin:round;">
</g>
<g style="fill:#FFFFFF; fill-opacity:0.0; 
stroke:#FFFFFF; stroke-width:157.48; stroke-opacity:1; 
stroke-linecap:round; stroke-linejoin:round;">
<path d="M36971 33941
L36971 33958
" />
<path d="M36971 33958
L36430 34500
" />
<path d="M37441 33874
L37038 33874
" />
<path d="M37038 33874
L36971 33941
" />
<path d="M36430 34500
L36067 34500
" />
<path d="M36067 34500
L35317 34500
" />
<path d="M35317 34500
L35267 34550
" />
</g>
<g style="fill:#FFFFFF; fill-opacity:0.0; 
stroke:#FFFFFF; stroke-width:98.4252; stroke-opacity:1; 
stroke-linecap:round; stroke-linejoin:round;">
<path d="M36067 34440
L36067 34500
" />
</g>
<g style="fill:#FFFFFF; fill-opacity:0.0; 
stroke:#FFFFFF; stroke-width:157.48; stroke-opacity:1; 
stroke-linecap:round; stroke-linejoin:round;">
<path d="M33700 32450
L35017 32450
" />
<path d="M35267 33565
L35267 32700
" />
<path d="M35267 32700
L35017 32450
" />
<path d="M38780 33048
L38780 31945
" />
<path d="M38780 31945
L36400 29565
" />
<path d="M36400 29565
L35689 29565
" />
<path d="M35689 29565
L35217 29565
" />
<path d="M39567 33374
L39105 33374
" />
<path d="M39105 33374
L38780 33048
" />
<path d="M35217 29565
L36313 29565
" />
<path d="M41835 33733
L41835 33674
" />
<path d="M41835 33674
L41535 33374
" />
<path d="M41535 33374
L39567 33374
" />
</g>
<g style="fill:#FFFFFF; fill-opacity:0.0; 
stroke:#FFFFFF; stroke-width:98.4252; stroke-opacity:1; 
stroke-linecap:round; stroke-linejoin:round;">
<path d="M39567 33374
L41535 33374
" />
<path d="M41535 33374
L41835 33674
" />
</g>
<g style="fill:#FFFFFF; fill-opacity:0.0; 
stroke:#FFFFFF; stroke-width:157.48; stroke-opacity:1; 
stroke-linecap:round; stroke-linejoin:round;">
<path d="M34367 30683
L35083 30683
" />
<path d="M35083 30683
L35217 30550
" />
<path d="M33550 30450
L33784 30683
" />
<path d="M33784 30683
L34367 30683
" />
</g>
<g style="fill:#FFFFFF; fill-opacity:0.0; 
stroke:#FFFFFF; stroke-width:98.4252; stroke-opacity:1; 
stroke-linecap:round; stroke-linejoin:round;">
<path d="M35083 30683
L35217 30550
" />
<path d="M34367 30683
L33784 30683
" />
</g>
<g style="fill:#FFFFFF; fill-opacity:0.0; 
stroke:#FFFFFF; stroke-width:157.48; stroke-opacity:1; 
stroke-linecap:round; stroke-linejoin:round;">
<path d="M39567 33874
L40287 33874
" />
<path d="M40287 33874
L40313 33900
" />
<path d="M38505 33274
L38505 32005
" />
<path d="M38065 31564
L38065 31564
" />
<path d="M38505 32005
L38065 31564
" />
<path d="M37650 31150
L38065 31564
" />
<path d="M37159 31150
L37650 31150
" />
<path d="M38505 33274
L39105 33874
" />
<path d="M39105 33874
L39567 33874
" />
<path d="M33530 34550
L31767 34550
" />
<path d="M31767 34550
L31667 34450
" />
<path d="M31667 34450
L33430 34450
" />
<path d="M33430 34450
L33530 34550
" />
<path d="M31767 34550
L31667 34450
" />
<path d="M31767 34550
L31667 34450
" />
</g>
<g style="fill:#FFFFFF; fill-opacity:0.0; 
stroke:#FFFFFF; stroke-width:98.4252; stroke-opacity:1; 
stroke-linecap:round; stroke-linejoin:round;">
<path d="M31668 34448
L31667 34450
" />
<path d="M38367 31870
L37646 31150
" />
<path d="M39380 33874
L39365 33858
" />
<path d="M37874 31377
L37646 31150
" />
<path d="M37646 31150
L37159 31150
" />
<path d="M39567 33874
L39380 33874
" />
</g>
<g style="fill:#FFFFFF; fill-opacity:0.0; 
stroke:#FFFFFF; stroke-width:157.48; stroke-opacity:1; 
stroke-linecap:round; stroke-linejoin:round;">
<path d="M31795 29850
L31667 29850
" />
<path d="M31667 29850
L31539 29850
" />
<path d="M30781 30036
L30967 29850
" />
<path d="M30967 29850
L31667 29850
" />
<path d="M31667 34450
L31175 34450
" />
<path d="M31175 34450
L30781 34055
" />
<path d="M30781 34055
L30781 30036
" />
<path d="M32817 34550
L31767 34550
" />
<path d="M31767 34550
L31667 34450
" />
<path d="M31995 30050
L31795 29850
" />
<path d="M36463 30050
L31995 30050
" />
<path d="M37159 30746
L36463 30050
" />
<path d="M37159 31150
L37159 30746
" />
</g>
<g style="fill:#FFFFFF; fill-opacity:0.0; 
stroke:#FFFFFF; stroke-width:98.4252; stroke-opacity:1; 
stroke-linecap:round; stroke-linejoin:round;">
<path d="M40746 33900
L41080 33900
" />
<path d="M43430 33350
L44378 33350
" />
<path d="M42586 34193
L43430 33350
" />
<path d="M41373 34193
L42586 34193
" />
<path d="M41080 33900
L41373 34193
" />
<path d="M44378 35150
L44378 35151
" />
<path d="M44378 35151
L44180 35350
" />
<path d="M33530 33565
L33595 33565
" />
<path d="M33595 33565
L34480 34450
" />
<path d="M34930 35350
L44180 35350
" />
<path d="M34480 34900
L34930 35350
" />
<path d="M34480 34450
L34480 34900
" />
<path d="M44378 35150
L44378 33613
" />
<path d="M44378 33613
L44380 33611
" />
<path d="M44380 33611
L44380 33550
" />
<path d="M44380 33550
L44378 33550
" />
<path d="M33369 33565
L32817 33565
" />
<path d="M36348 32016
L36705 32374
" />
<path d="M36705 32374
L37441 32374
" />
<path d="M36067 32016
L36348 32016
" />
</g>
<g style="fill:#FFFFFF; fill-opacity:0.0; 
stroke:#FFFFFF; stroke-width:157.48; stroke-opacity:1; 
stroke-linecap:round; stroke-linejoin:round;">
<path d="M40385 31183
L40385 30900
" />
<path d="M40385 30900
L40635 30650
" />
<path d="M40635 30650
L43638 30650
" />
<path d="M43638 30650
L44378 31389
" />
<path d="M44378 31389
L44378 33350
" />
<path d="M44378 33350
L44378 33550
" />
<path d="M44378 33550
L44378 33613
" />
<path d="M31017 31550
L31117 31450
" />
<path d="M31117 31450
L31667 31450
" />
<path d="M31017 33273
L31017 31550
" />
<path d="M31667 33450
L31194 33450
" />
<path d="M31194 33450
L31017 33273
" />
<path d="M32817 33565
L31783 33565
" />
<path d="M31783 33565
L31667 33450
" />
<path d="M36067 32016
L35450 32016
" />
<path d="M35450 32016
L35017 31583
" />
</g>
<g style="fill:#FFFFFF; fill-opacity:0.0; 
stroke:#FFFFFF; stroke-width:98.4252; stroke-opacity:1; 
stroke-linecap:round; stroke-linejoin:round;">
<path d="M34367 31550
L31767 31550
" />
<path d="M31767 31550
L31667 31450
" />
<path d="M34367 31550
L34983 31550
" />
<path d="M34983 31550
L35017 31583
" />
</g>
<g style="fill:#FFFFFF; fill-opacity:0.0; 
stroke:#FFFFFF; stroke-width:157.48; stroke-opacity:1; 
stroke-linecap:round; stroke-linejoin:round;">
<path d="M36100 32050
L36067 32016
" />
<path d="M36175 31150
L36175 31909
" />
<path d="M36175 31909
L36067 32016
" />
<path d="M37441 33374
L36605 33374
" />
<path d="M36346 33633
L36067 33633
" />
<path d="M36605 33374
L36346 33633
" />
<path d="M41851 34850
L41580 34850
" />
<path d="M37983 33454
L37902 33374
" />
<path d="M37983 34635
L37983 33454
" />
<path d="M38397 35050
L37983 34635
" />
<path d="M41380 35050
L38397 35050
" />
<path d="M41580 34850
L41380 35050
" />
<path d="M37902 33374
L37441 33374
" />
</g>
<g style="fill:#FFFFFF; fill-opacity:0.0; 
stroke:#FFFFFF; stroke-width:98.4252; stroke-opacity:1; 
stroke-linecap:round; stroke-linejoin:round;">
<path d="M37902 33374
L37441 33374
" />
</g>
<g style="fill:#FFFFFF; fill-opacity:0.0; 
stroke:#FFFFFF; stroke-width:157.48; stroke-opacity:1; 
stroke-linecap:round; stroke-linejoin:round;">
<path d="M37441 32874
L37904 32874
" />
<path d="M38230 34095
L38780 34645
" />
<path d="M38230 33200
L38230 34095
" />
<path d="M37904 32874
L38230 33200
" />
<path d="M37441 32874
L36076 32874
" />
<path d="M36076 32874
L36067 32883
" />
<path d="M40079 34645
L38780 34645
" />
</g>
<g style="fill:#FFFFFF; fill-opacity:0.0; 
stroke:#FFFFFF; stroke-width:98.4252; stroke-opacity:1; 
stroke-linecap:round; stroke-linejoin:round;">
<path d="M36076 32874
L36067 32883
" />
</g>
<g style="fill:#FFFFFF; fill-opacity:0.0; 
stroke:#FFFFFF; stroke-width:157.48; stroke-opacity:1; 
stroke-linecap:round; stroke-linejoin:round;">
<path d="M41035 32050
L40385 32050
" />
<path d="M40385 32050
L40385 32071
" />
<path d="M40385 32071
L40083 32374
" />
<path d="M40083 32374
L39567 32374
" />
</g>
<g style="fill:#FFFFFF; fill-opacity:0.0; 
stroke:#FFFFFF; stroke-width:98.4252; stroke-opacity:1; 
stroke-linecap:round; stroke-linejoin:round;">
<path d="M39567 32374
L40061 32374
" />
<path d="M40061 32374
L40072 32384
" />
<path d="M40072 32384
L40110 32384
" />
<path d="M40110 32384
L40385 32109
" />
<path d="M40385 32109
L40385 32050
" />
</g>
<g style="fill:#FFFFFF; fill-opacity:0.0; 
stroke:#FFFFFF; stroke-width:157.48; stroke-opacity:1; 
stroke-linecap:round; stroke-linejoin:round;">
<path d="M41835 32866
L41835 32116
" />
<path d="M41835 32116
L41852 32100
" />
<path d="M41835 32866
L39574 32866
" />
<path d="M39574 32866
L39567 32874
" />
</g>
<g style="fill:#FFFFFF; fill-opacity:0.0; 
stroke:#FFFFFF; stroke-width:98.4252; stroke-opacity:1; 
stroke-linecap:round; stroke-linejoin:round;">
<path d="M39567 32874
L41828 32874
" />
<path d="M41828 32874
L41835 32866
" />
<path d="M41852 32100
L41852 32850
" />
<path d="M41852 32850
L41835 32866
" />
</g>
<g style="fill:#FFFFFF; fill-opacity:0.0; 
stroke:#FFFFFF; stroke-width:157.48; stroke-opacity:1; 
stroke-linecap:round; stroke-linejoin:round;">
<path d="M43885 31850
L43235 31850
" />
<path d="M43235 31850
L42569 31183
" />
<path d="M42569 31183
L41035 31183
" />
</g>
<g style="fill:#FFFFFF; fill-opacity:0.0; 
stroke:#FFFFFF; stroke-width:98.4252; stroke-opacity:1; 
stroke-linecap:round; stroke-linejoin:round;">
<path d="M42569 31183
L43235 31850
" />
<path d="M41035 31183
L42569 31183
" />
</g>
<g style="fill:#FFFFFF; fill-opacity:0.0; 
stroke:#FFFFFF; stroke-width:157.48; stroke-opacity:1; 
stroke-linecap:round; stroke-linejoin:round;">
<path d="M43885 32850
L43193 32850
" />
<path d="M43193 32850
L42718 32375
" />
<path d="M42718 32375
L42718 32100
" />
</g>
<g style="fill:#FFFFFF; fill-opacity:0.0; 
stroke:#FFFFFF; stroke-width:98.4252; stroke-opacity:1; 
stroke-linecap:round; stroke-linejoin:round;">
<path d="M42718 32100
L42718 32375
" />
<path d="M42718 32375
L43193 32850
" />
</g>
<g style="fill:#FFFFFF; fill-opacity:0.0; 
stroke:#FFFFFF; stroke-width:157.48; stroke-opacity:1; 
stroke-linecap:round; stroke-linejoin:round;">
<path d="M43885 33850
L43316 33850
" />
<path d="M43316 33850
L42766 34400
" />
<path d="M41526 34400
L41280 34645
" />
<path d="M42766 34400
L41526 34400
" />
<path d="M41280 34645
L40945 34645
" />
</g>
<g style="fill:#FFFFFF; fill-opacity:0.0; 
stroke:#FFFFFF; stroke-width:98.4252; stroke-opacity:1; 
stroke-linecap:round; stroke-linejoin:round;">
<path d="M43316 33850
L43885 33850
" />
<path d="M40945 34645
L41280 34645
" />
</g>
<g style="fill:#FFFFFF; fill-opacity:0.0; 
stroke:#FFFFFF; stroke-width:157.48; stroke-opacity:1; 
stroke-linecap:round; stroke-linejoin:round;">
<path d="M42717 34850
L43885 34850
" />
<path d="M32834 32450
L31667 32450
" />
<path d="M31667 30450
L32684 30450
" />
</g>
<g style="fill:#FFFFFF; fill-opacity:1.0; 
stroke:#FFFFFF; stroke-width:100; stroke-opacity:1; 
stroke-linecap:round; stroke-linejoin:round;">
<polyline style="fill-rule:evenodd;"
points="30710,29757
30792,29675
30872,29621
30967,29603
31795,29603
31890,29621
31970,29675
32097,29803
34731,29803
34731,29250
34742,29188
34779,29131
34835,29092
34902,29079
35532,29079
35594,29091
35651,29127
35690,29184
35703,29250
35703,29318
36400,29318
36494,29337
36574,29391
38954,31771
39008,31851
39026,31945
39026,32946
39096,33015
39091,32992
39091,32755
39102,32693
39139,32636
39157,32624
39143,32614
39104,32558
39091,32492
39091,32255
39102,32193
39139,32136
39195,32098
39262,32084
39872,32084
39935,32096
39981,32126
40037,32070
40037,31813
40049,31751
40085,31694
40135,31660
40067,31632
39996,31561
39958,31469
39958,31296
40021,31233
40335,31233
40335,31241
40435,31241
40435,31233
40443,31233
40443,31133
40435,31133
40435,30760
40335,30760
40335,31133
40021,31133
39958,31071
39958,30897
39996,30806
40067,30735
40159,30697
40273,30697
40335,30760
40435,30760
40498,30697
40612,30697
40704,30735
40772,30803
40792,30789
40858,30776
41213,30776
41275,30787
41332,30824
41370,30880
41382,30937
42569,30937
42664,30955
42720,30993
42744,31009
43338,31603
43379,31603
43379,31515
43391,31453
43428,31395
43484,31357
43551,31343
44220,31343
44282,31355
44340,31392
44378,31448
44391,31515
44391,32184
44380,32246
44343,32304
44287,32342
44220,32356
43940,32356
44088,32385
44251,32494
44360,32657
44398,32850
44360,33042
44251,33205
44088,33314
43909,33350
44088,33385
44251,33494
44360,33657
44398,33850
44360,34042
44251,34205
44088,34314
43909,34350
44088,34385
44251,34494
44360,34657
44398,34850
44360,35042
44251,35205
44088,35314
43895,35352
43876,35352
43683,35314
43520,35205
43447,35096
43108,35096
43076,35146
43020,35185
42953,35198
42481,35198
42418,35186
42361,35150
42323,35093
42309,35027
42309,34672
42314,34646
42253,34646
42258,34672
42258,35027
42247,35089
42210,35146
42154,35185
42087,35198
41615,35198
41585,35193
41554,35224
41474,35278
41380,35296
38397,35296
38302,35278
38222,35224
37808,34810
37801,34799
37755,34730
37736,34635
37736,34163
37136,34163
37118,34160
36604,34674
36524,34728
36430,34746
36413,34746
36404,34798
36367,34855
36311,34894
36244,34907
35890,34907
35827,34895
35770,34859
35753,34834
35753,34864
35742,34927
35705,34984
35649,35022
35582,35036
34952,35036
34890,35024
34832,34987
34794,34931
34781,34864
34781,34235
34792,34172
34829,34115
34885,34077
34952,34063
35582,34063
35644,34075
35701,34112
35740,34168
35743,34182
35767,34144
35823,34105
35890,34092
36244,34092
36306,34104
36364,34140
36394,34186
36760,33819
36796,33766
36863,33699
36943,33645
37022,33630
37031,33624
37026,33620
36708,33620
36520,33808
36440,33861
36415,33866
36415,33870
36404,33932
36367,33989
36311,34027
36244,34041
35890,34041
35827,34029
35770,33992
35732,33936
35718,33870
35718,33738
35677,33839
35541,33975
35363,34048
35171,34048
34994,33975
34858,33839
34784,33662
34784,33480
34099,33480
34088,33704
34023,33862
33926,33891
33600,33565
33459,33565
33133,33891
33036,33862
32960,33651
32971,33426
33036,33268
33133,33239
33459,33565
33600,33565
33926,33239
34023,33268
34099,33480
34784,33480
34784,33470
34857,33292
34980,33168
33856,33168
33530,33495
33203,33168
33233,33072
33444,32996
33669,33006
33826,33072
33856,33168
34980,33168
34993,33156
35020,33145
35020,32857
34840,32857
34777,32845
34720,32809
34682,32752
34670,32696
34091,32696
34059,32746
34003,32785
33936,32798
33464,32798
33401,32786
33344,32750
33306,32693
33292,32627
33292,32272
33241,32272
33241,32627
33230,32689
33193,32746
33137,32785
33070,32798
32598,32798
32535,32786
32478,32750
32442,32696
32105,32696
32032,32805
31872,32912
32014,32979
32168,33148
32234,33309
32187,33400
31717,33400
31717,33392
31617,33392
31617,33400
31147,33400
31099,33309
31166,33148
31320,32979
31462,32912
31302,32805
31193,32642
31154,32450
31193,32257
31302,32094
31462,31987
31320,31920
31166,31751
31099,31590
31147,31500
31617,31500
31617,31507
31717,31507
31717,31500
32187,31500
32234,31590
32168,31751
32014,31920
31872,31987
32032,32094
32105,32203
32443,32203
32475,32153
32531,32114
32598,32101
33070,32101
33132,32113
33190,32149
33228,32206
33241,32272
33292,32272
33304,32210
33341,32153
33397,32114
33464,32101
33936,32101
33998,32113
34056,32149
34092,32203
34670,32203
34680,32151
34717,32094
34767,32060
34698,32032
34671,32004
34594,32036
34479,32036
34417,31973
34417,31600
34317,31600
34317,31973
34254,32036
34140,32036
34048,31998
33978,31927
33940,31835
33940,31662
34002,31600
34317,31600
34417,31600
34732,31600
34765,31633
34967,31633
34967,31641
35067,31641
35067,31633
35382,31633
35444,31696
35444,31869
35406,31961
35336,32032
35267,32060
35314,32090
35352,32147
35365,32213
35365,32449
35441,32525
35495,32605
35514,32700
35514,33145
35540,33155
35676,33291
35719,33394
35730,33335
35767,33278
35796,33258
35770,33242
35732,33185
35718,33119
35718,32646
35730,32584
35767,32527
35817,32493
35748,32465
35678,32394
35640,32302
35640,32129
35702,32066
36017,32066
36017,32074
36117,32074
36117,32066
36432,32066
36494,32129
36494,32302
36456,32394
36386,32465
36317,32493
36364,32523
36402,32580
36411,32627
36922,32627
36886,32541
36886,32486
36949,32424
37391,32424
37391,32431
37491,32431
37491,32424
37934,32424
37996,32486
37996,32541
37958,32633
37955,32637
37998,32645
38078,32699
38258,32879
38258,32206
37996,32206
37996,32261
37934,32324
37491,32324
37491,32068
37391,32068
37391,32324
36949,32324
36886,32261
36886,32206
36924,32114
36995,32043
37086,32005
37329,32005
37391,32068
37491,32068
37554,32005
37796,32005
37888,32043
37958,32114
37996,32206
38258,32206
38258,32107
37890,31739
37890,31739
37612,31461
37577,31515
37521,31553
37454,31567
36864,31567
36801,31555
36744,31518
36710,31469
36682,31537
36612,31608
36520,31646
36459,31646
36494,31730
36494,31904
36432,31966
36117,31966
36117,31959
36017,31959
36017,31966
35702,31966
35640,31904
35640,31730
35678,31639
35723,31593
35668,31537
35630,31445
35630,31297
35444,31297
35444,31471
35382,31533
35067,31533
35067,31160
35129,31097
35244,31097
35336,31135
35406,31206
35444,31297
35630,31297
35630,31262
35692,31200
36125,31200
36125,31207
36225,31207
36225,31200
36233,31200
36233,31100
36225,31100
36225,30716
36125,30716
36125,31100
35692,31100
35630,31037
35630,30854
35668,30762
35738,30691
35830,30653
36062,30653
36125,30716
36225,30716
36287,30653
36520,30653
36612,30691
36682,30762
36711,30831
36741,30784
36797,30746
36807,30743
36360,30296
35635,30296
35700,30453
35700,30645
35627,30823
35491,30959
35313,31032
35121,31033
34944,30959
34915,30930
34713,30930
34704,30982
34667,31039
34617,31073
34686,31101
34713,31129
34790,31097
34904,31097
34967,31160
34967,31533
34652,31533
34618,31500
34417,31500
34417,31492
34317,31492
34317,31500
34002,31500
33940,31437
33940,31264
33978,31172
34048,31101
34117,31073
34070,31042
34032,30986
34020,30930
33784,30930
33689,30911
33609,30858
33549,30798
33314,30798
33251,30786
33194,30750
33156,30693
33142,30627
33142,30296
33091,30296
33091,30627
33080,30689
33043,30746
32987,30785
32920,30798
32448,30798
32385,30786
32328,30750
32292,30696
32105,30696
32032,30805
31872,30912
32014,30979
32168,31148
32234,31309
32187,31400
31717,31400
31717,31392
31617,31392
31617,31400
31147,31400
31099,31309
31166,31148
31320,30979
31462,30912
31302,30805
31193,30642
31154,30450
31193,30257
31300,30096
31069,30096
31028,30138
31028,33953
31165,34091
31173,34053
31209,33995
31266,33957
31332,33943
31370,33943
31320,33920
31166,33751
31099,33590
31147,33500
31617,33500
31617,33507
31717,33507
31717,33500
32187,33500
32234,33590
32168,33751
32014,33920
31964,33943
32002,33943
32064,33955
32121,33992
32159,34048
32173,34115
32173,34203
33049,34203
33055,34172
33092,34115
33148,34077
33215,34063
33243,34063
33233,34059
33203,33962
33530,33636
33856,33962
33826,34059
33815,34063
33844,34063
33907,34075
33964,34112
34002,34168
34016,34235
34016,34864
34004,34927
33967,34984
33911,35022
33844,35036
33215,35036
33152,35024
33095,34987
33057,34931
33043,34864
33043,34796
32171,34796
32161,34846
32124,34904
32068,34942
32002,34956
31332,34956
31270,34944
31213,34907
31174,34851
31161,34784
31161,34694
31080,34678
31000,34624
30710,34334
30710,35432
44685,35432
44685,29059
44150,29059
44150,30399
39709,30399
39709,29059
44150,29059
44685,29059
44685,28937
30710,28937
30710,29757
" /> 
<polyline style="fill-rule:evenodd;"
points="41372,31482
41335,31539
41279,31577
41213,31591
40858,31591
40796,31579
40772,31564
40704,31632
40635,31660
40682,31690
40711,31732
40735,31694
40792,31655
40858,31642
41213,31642
41275,31654
41332,31690
41370,31747
41384,31813
41384,32286
41372,32348
41335,32405
41279,32444
41213,32457
40858,32457
40796,32445
40739,32409
40710,32367
40685,32405
40629,32444
40563,32457
40348,32457
40257,32548
40177,32602
40087,32620
41489,32620
41499,32568
41535,32511
41589,32474
41589,32443
41554,32436
41497,32400
41458,32343
41445,32277
41445,31922
41456,31860
41493,31803
41549,31764
41616,31751
42089,31751
42151,31763
42208,31799
42246,31856
42260,31922
42260,32277
42248,32339
42211,32396
42155,32435
42089,32448
42082,32448
42082,32475
42132,32507
42170,32564
42184,32630
42184,33103
42172,33165
42135,33222
42079,33261
42013,33274
41785,33274
41836,33325
42013,33325
42075,33337
42132,33373
42170,33430
42184,33496
42184,33969
42172,34031
42135,34088
42079,34127
42013,34140
41658,34140
41596,34128
41539,34092
41500,34035
41495,34011
41114,34011
41114,34048
41076,34140
41006,34210
40914,34248
40859,34248
40796,34185
40796,33949
41052,33949
41114,34011
41495,34011
41487,33969
41487,33674
41433,33620
41037,33620
41076,33659
41114,33751
41114,33788
41052,33850
40796,33850
40796,33842
40696,33842
40696,33850
40688,33850
40688,33949
40696,33949
40696,34185
40634,34248
40578,34248
40486,34210
40443,34167
40431,34169
40195,34169
40133,34158
40075,34121
40075,34120
39982,34120
39939,34150
39872,34163
39262,34163
39200,34151
39152,34120
39105,34120
39010,34102
38930,34048
38476,33594
38476,33993
38882,34398
39688,34398
39720,34348
39776,34310
39843,34297
40315,34297
40378,34308
40435,34345
40473,34401
40487,34468
40487,34803
40538,34803
40538,34468
40549,34406
40586,34348
40642,34310
40709,34297
41181,34297
41244,34308
41258,34318
41351,34225
41387,34201
41431,34171
41526,34153
42663,34153
43141,33675
43159,33663
43221,33621
43316,33603
43447,33603
43520,33494
43683,33385
43862,33350
43683,33314
43520,33205
43447,33096
43193,33096
43098,33078
43018,33024
42544,32550
42518,32511
42490,32470
42486,32448
42482,32448
42420,32436
42363,32400
42324,32343
42311,32277
42311,31922
42323,31860
42359,31803
42416,31764
42482,31751
42788,31751
42467,31430
41382,31430
41372,31482
" /> 
</g>
<g style="fill:#000000; fill-opacity:1.0; 
stroke:#000000; stroke-width:100; stroke-opacity:1; 
stroke-linecap:round; stroke-linejoin:round;">
</g>
<g style="fill:#000000; fill-opacity:1.0; 
stroke:#000000; stroke-width:0; stroke-opacity:1; 
stroke-linecap:round; stroke-linejoin:round;">
<circle cx="33530" cy="34550" r="68.8976" /> 
</g>
<g style="fill:#000000; fill-opacity:1.0; 
stroke:#000000; stroke-width:39.3701; stroke-opacity:1; 
stroke-linecap:round; stroke-linejoin:round;">
</g>
<g style="fill:#000000; fill-opacity:1.0; 
stroke:#000000; stroke-width:0; stroke-opacity:1; 
stroke-linecap:round; stroke-linejoin:round;">
<circle cx="33530" cy="33565.7" r="68.8976" /> 
</g>
<g style="fill:#000000; fill-opacity:1.0; 
stroke:#000000; stroke-width:39.3701; stroke-opacity:1; 
stroke-linecap:round; stroke-linejoin:round;">
</g>
<g style="fill:#000000; fill-opacity:1.0; 
stroke:#000000; stroke-width:0; stroke-opacity:1; 
stroke-linecap:round; stroke-linejoin:round;">
<circle cx="31667.4" cy="34450" r="68.8976" /> 
</g>
<g style="fill:#000000; fill-opacity:1.0; 
stroke:#000000; stroke-width:39.3701; stroke-opacity:1; 
stroke-linecap:round; stroke-linejoin:round;">
</g>
<g style="fill:#000000; fill-opacity:1.0; 
stroke:#000000; stroke-width:0; stroke-opacity:1; 
stroke-linecap:round; stroke-linejoin:round;">
<circle cx="31667.4" cy="33450" r="68.8976" /> 
</g>
<g style="fill:#000000; fill-opacity:1.0; 
stroke:#000000; stroke-width:39.3701; stroke-opacity:1; 
stroke-linecap:round; stroke-linejoin:round;">
</g>
<g style="fill:#000000; fill-opacity:1.0; 
stroke:#000000; stroke-width:0; stroke-opacity:1; 
stroke-linecap:round; stroke-linejoin:round;">
<circle cx="31667.4" cy="32450" r="68.8976" /> 
</g>
<g style="fill:#000000; fill-opacity:1.0; 
stroke:#000000; stroke-width:39.3701; stroke-opacity:1; 
stroke-linecap:round; stroke-linejoin:round;">
</g>
<g style="fill:#000000; fill-opacity:1.0; 
stroke:#000000; stroke-width:0; stroke-opacity:1; 
stroke-linecap:round; stroke-linejoin:round;">
<circle cx="31667.4" cy="31450" r="68.8976" /> 
</g>
<g style="fill:#000000; fill-opacity:1.0; 
stroke:#000000; stroke-width:39.3701; stroke-opacity:1; 
stroke-linecap:round; stroke-linejoin:round;">
</g>
<g style="fill:#000000; fill-opacity:1.0; 
stroke:#000000; stroke-width:0; stroke-opacity:1; 
stroke-linecap:round; stroke-linejoin:round;">
<circle cx="31667.4" cy="30450" r="68.8976" /> 
</g>
<g style="fill:#000000; fill-opacity:1.0; 
stroke:#000000; stroke-width:39.3701; stroke-opacity:1; 
stroke-linecap:round; stroke-linejoin:round;">
</g>
<g style="fill:#000000; fill-opacity:1.0; 
stroke:#000000; stroke-width:0; stroke-opacity:1; 
stroke-linecap:round; stroke-linejoin:round;">
<circle cx="43885.9" cy="31850" r="68.8976" /> 
</g>
<g style="fill:#000000; fill-opacity:1.0; 
stroke:#000000; stroke-width:39.3701; stroke-opacity:1; 
stroke-linecap:round; stroke-linejoin:round;">
</g>
<g style="fill:#000000; fill-opacity:1.0; 
stroke:#000000; stroke-width:0; stroke-opacity:1; 
stroke-linecap:round; stroke-linejoin:round;">
<circle cx="43885.9" cy="32850" r="68.8976" /> 
</g>
<g style="fill:#000000; fill-opacity:1.0; 
stroke:#000000; stroke-width:39.3701; stroke-opacity:1; 
stroke-linecap:round; stroke-linejoin:round;">
</g>
<g style="fill:#000000; fill-opacity:1.0; 
stroke:#000000; stroke-width:0; stroke-opacity:1; 
stroke-linecap:round; stroke-linejoin:round;">
<circle cx="43885.9" cy="33850" r="68.8976" /> 
</g>
<g style="fill:#000000; fill-opacity:1.0; 
stroke:#000000; stroke-width:39.3701; stroke-opacity:1; 
stroke-linecap:round; stroke-linejoin:round;">
</g>
<g style="fill:#000000; fill-opacity:1.0; 
stroke:#000000; stroke-width:0; stroke-opacity:1; 
stroke-linecap:round; stroke-linejoin:round;">
<circle cx="43885.9" cy="34850" r="68.8976" /> 
</g>
<g style="fill:#000000; fill-opacity:1.0; 
stroke:#000000; stroke-width:39.3701; stroke-opacity:1; 
stroke-linecap:round; stroke-linejoin:round;">
</g>
<g style="fill:#000000; fill-opacity:1.0; 
stroke:#000000; stroke-width:0; stroke-opacity:1; 
stroke-linecap:round; stroke-linejoin:round;">
<circle cx="35267.4" cy="34550" r="68.8976" /> 
</g>
<g style="fill:#000000; fill-opacity:1.0; 
stroke:#000000; stroke-width:39.3701; stroke-opacity:1; 
stroke-linecap:round; stroke-linejoin:round;">
</g>
<g style="fill:#000000; fill-opacity:1.0; 
stroke:#000000; stroke-width:0; stroke-opacity:1; 
stroke-linecap:round; stroke-linejoin:round;">
<circle cx="35267.4" cy="33565.7" r="68.8976" /> 
</g>
<g style="fill:#000000; fill-opacity:1.0; 
stroke:#000000; stroke-width:39.3701; stroke-opacity:1; 
stroke-linecap:round; stroke-linejoin:round;">
</g>
<g style="fill:#000000; fill-opacity:1.0; 
stroke:#000000; stroke-width:0; stroke-opacity:1; 
stroke-linecap:round; stroke-linejoin:round;">
<circle cx="35217.4" cy="29565.7" r="68.8976" /> 
</g>
<g style="fill:#000000; fill-opacity:1.0; 
stroke:#000000; stroke-width:39.3701; stroke-opacity:1; 
stroke-linecap:round; stroke-linejoin:round;">
</g>
<g style="fill:#000000; fill-opacity:1.0; 
stroke:#000000; stroke-width:0; stroke-opacity:1; 
stroke-linecap:round; stroke-linejoin:round;">
<circle cx="35217.4" cy="30550" r="68.8976" /> 
</g>
<g style="fill:#000000; fill-opacity:1.0; 
stroke:#000000; stroke-width:39.3701; stroke-opacity:1; 
stroke-linecap:round; stroke-linejoin:round;">
</g>
<g style="fill:#FFFFFF; fill-opacity:1.0; 
stroke:#FFFFFF; stroke-width:39.3701; stroke-opacity:1; 
stroke-linecap:round; stroke-linejoin:round;">
</g> 
</svg>
